<svg width="183" height="40" viewBox="0 0 183 40" fill="none" xmlns="http://www.w3.org/2000/svg">
<g id="logo">
<path id="Rectangle 330 (Traced)" fill-rule="evenodd" clip-rule="evenodd" d="M67 20V40H87H107V20V0H87H67V20ZM97 20V30H87H77V20V10H87H97V20Z" fill="#5A8E65"/>
<g id="BRANDNAME (Traced)">
<mask id="path-2-outside-1_195_733" maskUnits="userSpaceOnUse" x="0" y="10" width="183" height="20" fill="black">
<rect fill="white" y="10" width="183" height="20"/>
<path fill-rule="evenodd" clip-rule="evenodd" d="M1 20.0927V28.1747H5.97839H10.9567L11.4852 28.0969L12.0137 28.0191L12.5506 27.8415L13.0875 27.6638L13.5187 27.4096L13.9499 27.1554L14.343 26.7824L14.7361 26.4095L14.9479 26.1112L15.1596 25.8128L15.3583 25.4151L15.5571 25.0173L15.6846 24.6132L15.812 24.2092L15.8997 23.7679L15.9874 23.3267L15.9869 22.4068L15.9864 21.4869L15.8965 20.9897L15.8066 20.4925L15.6847 20.0698L15.5627 19.6472L15.3428 19.1822L15.1229 18.7172L14.9014 18.4067L14.6799 18.0963L14.304 17.7452L13.928 17.3942L13.4616 17.1627L12.9953 16.9312L12.5631 16.8437L12.1309 16.7562L12.3295 16.6967L12.5282 16.6372L12.8186 16.4189L13.109 16.2006L13.2632 15.9847L13.4175 15.7688L13.5222 15.5623L13.6268 15.3558L13.6712 15.0725L13.7156 14.7893L13.6758 14.3937L13.6359 13.9982L13.5553 13.7554L13.4746 13.5126L13.2828 13.2159L13.0911 12.9192L12.8238 12.7174L12.5565 12.5156L12.2659 12.387L11.9753 12.2586L11.5719 12.1512L11.1684 12.0438L6.0842 12.0272L1 12.0107V20.0927ZM18.9998 20.0932V28.1747H20.1683H21.3368V22.7544V17.3341L23.7795 17.347L26.2222 17.3599L29.3286 22.7673L32.435 28.1747H33.7779H35.1208L35.0944 28.1059L35.068 28.0372L31.9814 22.7053L28.8947 17.3734V17.3542V17.335L29.9762 17.3347L31.0577 17.3345L31.5301 17.2628L32.0024 17.1912L32.3256 17.0909L32.6488 16.9906L32.9472 16.8141L33.2455 16.6377L33.4391 16.427L33.6328 16.2163L33.7738 15.9177L33.9148 15.6191L33.9655 15.3515L34.0162 15.0839L34.0154 14.78L34.0145 14.476L33.9446 14.1463L33.8747 13.8165L33.7516 13.5744L33.6285 13.3323L33.4714 13.1353L33.3142 12.9383L33.0561 12.7426L32.798 12.5469L32.4861 12.4041L32.1741 12.2612L31.7651 12.152L31.356 12.0427L25.1779 12.0272L18.9998 12.0117V20.0932ZM42.1695 19.9778L37.5714 27.9409L37.5077 28.0578L37.444 28.1747H37.8609H38.2779L40.0837 25.067L41.8895 21.9593H45.9778H50.0661L51.8545 25.0546L53.6429 28.1498L54.9969 28.1631L56.3508 28.1763L56.334 28.1301L56.3171 28.0839L51.668 20.0493L47.0189 12.0148L46.8932 12.0147L46.7675 12.0147L42.1695 19.9778ZM58.8779 20.0947V28.1747H59.2508H59.6237V20.4427V12.7108H59.9447H60.2657L66.7626 20.4427L73.2594 28.1747H74.1984H75.1374V20.0947V12.0147H74.7644H74.3915V18.8516V25.6885H74.2976H74.2037L68.4741 18.8516L62.7445 12.0147H60.8111H58.8779V20.0947ZM79.513 20.092V28.1747H83.4042H87.2953L87.9262 28.1009L88.5572 28.0271L89.0447 27.923L89.5322 27.819L90.0543 27.6692L90.5764 27.5193L91.1097 27.3016L91.6429 27.0838L91.9052 26.9509L92.1676 26.818L92.5405 26.5928L92.9134 26.3676L93.278 26.0993L93.6425 25.831L94.0429 25.449L94.4432 25.067L94.7638 24.6569L95.0845 24.2468L95.3199 23.8365L95.5553 23.4261L95.7358 23.0035L95.9163 22.5808L96.0384 22.1085L96.1605 21.6361L96.2218 21.1471L96.2831 20.658L96.255 19.8045L96.2268 18.951L96.1235 18.4688L96.0201 17.9865L95.8657 17.5489L95.7113 17.1113L95.5118 16.7135L95.3123 16.3157L95.0086 15.8682L94.7048 15.4207L94.1572 14.8738L93.6096 14.3268L93.1372 13.9906L92.6648 13.6544L91.8692 13.2587L91.0737 12.8629L90.5516 12.6839L90.0295 12.5049L89.4328 12.3624L88.8361 12.2199L88.314 12.1328L87.7919 12.0456L83.6525 12.0275L79.513 12.0094V20.092ZM98.7559 20.0947V28.1747H99.1288H99.5018V20.4405V12.7063L99.834 12.7209L100.166 12.7357L106.642 20.4427L113.118 28.1498L114.067 28.1634L115.015 28.1768V20.0958V12.0147H114.667H114.319V18.8516V25.6885H114.201H114.083L108.354 18.8516L102.624 12.0147H100.69H98.7559V20.0947ZM126.367 12.0743L126.316 12.139L121.733 20.0841L117.149 28.0293L117.12 28.1041L117.091 28.1789L117.503 28.1644L117.914 28.1498L119.709 25.0561L121.504 21.9624L125.604 21.9733L129.704 21.9842L131.492 25.0794L133.28 28.1747H134.637H135.994L135.626 27.5407L135.258 26.9068L130.957 19.4731L126.657 12.0395L126.538 12.0246L126.418 12.0096L126.367 12.0743ZM145.083 12.2684L144.963 12.5368L141.326 20.3301L137.689 28.1235V28.1491V28.1747L138.099 28.1734L138.51 28.1721L141.338 22.0823L144.167 15.9925L144.371 15.9933L144.576 15.994L147.083 21.4146L149.59 26.8353L149.626 26.7964L149.662 26.7576L152.164 21.3727L154.666 15.9878L154.862 16.0026L155.058 16.0174L157.879 22.0836L160.699 28.1498L161.977 28.1631L163.256 28.1764L163.239 28.132L163.222 28.0876L159.468 20.0534L155.714 12.0193L155.682 12.0542L155.65 12.0893L153.2 17.3599L150.751 22.6306L150.619 22.9191L150.487 23.2077L147.887 17.6485L145.287 12.0893L145.245 12.0447L145.203 12L145.083 12.2684ZM165.982 20.0947V28.1747L173.303 28.1739L180.625 28.173L180.813 27.8258L181 27.4786H174.659H168.319V22.4068V17.335H172.665H177.012L177.19 17.0162L177.368 16.6973V16.6682V16.6389H172.844H168.319V14.6749V12.7108H174.008H179.697L179.875 12.392L180.053 12.0731V12.0439V12.0147H173.018H165.982V20.0947ZM88.2394 12.7544L88.7367 12.8656L89.1842 13.0181L89.6317 13.1705L90.0291 13.3699L90.4265 13.5693L90.7983 13.8203L91.1702 14.0712L91.6126 14.4973L92.0549 14.9235L92.3668 15.3388L92.6787 15.7541L92.9277 16.2338L93.1768 16.7135L93.3512 17.1859L93.5258 17.6582L93.6527 18.2301L93.7796 18.8019L93.8372 19.3737L93.8948 19.9455L93.8651 20.519L93.8353 21.0924L93.7369 21.6681L93.6385 22.2438L93.481 22.7355L93.3236 23.2272L93.1298 23.6469L92.9361 24.0665L92.6031 24.5667L92.2703 25.067L91.8212 25.5159L91.372 25.9647L90.913 26.2713L90.454 26.5779L90.0425 26.7734L89.6311 26.9689L89.159 27.1199L88.687 27.2709L88.312 27.3481L87.9371 27.4254L87.4916 27.4764L87.0461 27.5275L84.448 27.5279L81.85 27.5283V20.0669V12.6056L84.7961 12.6244L87.7422 12.6433L88.2394 12.7544ZM10.5583 12.8512L10.8433 12.9658L10.992 13.1463L11.1408 13.3268L11.2238 13.5533L11.3069 13.7798L11.33 14.6788L11.353 15.5778L11.2923 15.8705L11.2315 16.1631L11.0733 16.3213L10.9151 16.4795L10.7186 16.5441L10.522 16.6085L6.9295 16.6264L3.33699 16.6443V14.6748V12.7052L6.80519 12.7209L10.2734 12.7365L10.5583 12.8512ZM30.287 12.762L30.6599 12.8102L30.8835 12.925L31.1072 13.0398L31.2563 13.3314L31.4055 13.623L31.4238 14.5467L31.4421 15.4704L31.3818 15.808L31.3214 16.1456L31.2013 16.2884L31.0812 16.4311L30.8457 16.5215L30.6102 16.6119L25.9735 16.6275L21.3368 16.6432V14.677V12.7108L25.6254 12.7123L29.9141 12.7139L30.287 12.762ZM47.9217 18.2301L49.6285 21.1886L45.9911 21.2014L42.3538 21.2141L42.3336 21.1939L42.3134 21.1737L43.9131 18.3966L45.5127 15.6196L45.6343 15.4305L45.7558 15.2414L45.9854 15.2565L46.2149 15.2715L47.9217 18.2301ZM125.924 15.4331L126.044 15.6196L127.644 18.3961L129.244 21.1725L129.223 21.1933L129.202 21.2141L125.566 21.2014L121.93 21.1886L123.448 18.5533L124.966 15.9179L125.164 15.5823L125.362 15.2467H125.583H125.804L125.924 15.4331ZM10.696 17.3845L11.1187 17.4331L11.417 17.5091L11.7154 17.5852L12.0705 17.7585L12.4257 17.9319L12.7068 18.213L12.9879 18.4941L13.185 18.9013L13.3821 19.3085L13.4787 19.7513L13.5754 20.1941L13.6274 20.8353L13.6794 21.4765L13.6793 22.3767L13.6792 23.277L13.6284 23.9435L13.5775 24.6099L13.4791 25.0622L13.3807 25.5145L13.1874 25.9183L12.9941 26.322L12.7263 26.5895L12.4584 26.857L12.1615 27.0141L11.8645 27.1712L11.5165 27.2747L11.1684 27.3781L10.7209 27.428L10.2734 27.4778L6.80519 27.4782L3.33699 27.4786V22.4068V17.335L6.80519 17.3354L10.2734 17.3358L10.696 17.3845Z"/>
</mask>
<path fill-rule="evenodd" clip-rule="evenodd" d="M1 20.0927V28.1747H5.97839H10.9567L11.4852 28.0969L12.0137 28.0191L12.5506 27.8415L13.0875 27.6638L13.5187 27.4096L13.9499 27.1554L14.343 26.7824L14.7361 26.4095L14.9479 26.1112L15.1596 25.8128L15.3583 25.4151L15.5571 25.0173L15.6846 24.6132L15.812 24.2092L15.8997 23.7679L15.9874 23.3267L15.9869 22.4068L15.9864 21.4869L15.8965 20.9897L15.8066 20.4925L15.6847 20.0698L15.5627 19.6472L15.3428 19.1822L15.1229 18.7172L14.9014 18.4067L14.6799 18.0963L14.304 17.7452L13.928 17.3942L13.4616 17.1627L12.9953 16.9312L12.5631 16.8437L12.1309 16.7562L12.3295 16.6967L12.5282 16.6372L12.8186 16.4189L13.109 16.2006L13.2632 15.9847L13.4175 15.7688L13.5222 15.5623L13.6268 15.3558L13.6712 15.0725L13.7156 14.7893L13.6758 14.3937L13.6359 13.9982L13.5553 13.7554L13.4746 13.5126L13.2828 13.2159L13.0911 12.9192L12.8238 12.7174L12.5565 12.5156L12.2659 12.387L11.9753 12.2586L11.5719 12.1512L11.1684 12.0438L6.0842 12.0272L1 12.0107V20.0927ZM18.9998 20.0932V28.1747H20.1683H21.3368V22.7544V17.3341L23.7795 17.347L26.2222 17.3599L29.3286 22.7673L32.435 28.1747H33.7779H35.1208L35.0944 28.1059L35.068 28.0372L31.9814 22.7053L28.8947 17.3734V17.3542V17.335L29.9762 17.3347L31.0577 17.3345L31.5301 17.2628L32.0024 17.1912L32.3256 17.0909L32.6488 16.9906L32.9472 16.8141L33.2455 16.6377L33.4391 16.427L33.6328 16.2163L33.7738 15.9177L33.9148 15.6191L33.9655 15.3515L34.0162 15.0839L34.0154 14.78L34.0145 14.476L33.9446 14.1463L33.8747 13.8165L33.7516 13.5744L33.6285 13.3323L33.4714 13.1353L33.3142 12.9383L33.0561 12.7426L32.798 12.5469L32.4861 12.4041L32.1741 12.2612L31.7651 12.152L31.356 12.0427L25.1779 12.0272L18.9998 12.0117V20.0932ZM42.1695 19.9778L37.5714 27.9409L37.5077 28.0578L37.444 28.1747H37.8609H38.2779L40.0837 25.067L41.8895 21.9593H45.9778H50.0661L51.8545 25.0546L53.6429 28.1498L54.9969 28.1631L56.3508 28.1763L56.334 28.1301L56.3171 28.0839L51.668 20.0493L47.0189 12.0148L46.8932 12.0147L46.7675 12.0147L42.1695 19.9778ZM58.8779 20.0947V28.1747H59.2508H59.6237V20.4427V12.7108H59.9447H60.2657L66.7626 20.4427L73.2594 28.1747H74.1984H75.1374V20.0947V12.0147H74.7644H74.3915V18.8516V25.6885H74.2976H74.2037L68.4741 18.8516L62.7445 12.0147H60.8111H58.8779V20.0947ZM79.513 20.092V28.1747H83.4042H87.2953L87.9262 28.1009L88.5572 28.0271L89.0447 27.923L89.5322 27.819L90.0543 27.6692L90.5764 27.5193L91.1097 27.3016L91.6429 27.0838L91.9052 26.9509L92.1676 26.818L92.5405 26.5928L92.9134 26.3676L93.278 26.0993L93.6425 25.831L94.0429 25.449L94.4432 25.067L94.7638 24.6569L95.0845 24.2468L95.3199 23.8365L95.5553 23.4261L95.7358 23.0035L95.9163 22.5808L96.0384 22.1085L96.1605 21.6361L96.2218 21.1471L96.2831 20.658L96.255 19.8045L96.2268 18.951L96.1235 18.4688L96.0201 17.9865L95.8657 17.5489L95.7113 17.1113L95.5118 16.7135L95.3123 16.3157L95.0086 15.8682L94.7048 15.4207L94.1572 14.8738L93.6096 14.3268L93.1372 13.9906L92.6648 13.6544L91.8692 13.2587L91.0737 12.8629L90.5516 12.6839L90.0295 12.5049L89.4328 12.3624L88.8361 12.2199L88.314 12.1328L87.7919 12.0456L83.6525 12.0275L79.513 12.0094V20.092ZM98.7559 20.0947V28.1747H99.1288H99.5018V20.4405V12.7063L99.834 12.7209L100.166 12.7357L106.642 20.4427L113.118 28.1498L114.067 28.1634L115.015 28.1768V20.0958V12.0147H114.667H114.319V18.8516V25.6885H114.201H114.083L108.354 18.8516L102.624 12.0147H100.69H98.7559V20.0947ZM126.367 12.0743L126.316 12.139L121.733 20.0841L117.149 28.0293L117.12 28.1041L117.091 28.1789L117.503 28.1644L117.914 28.1498L119.709 25.0561L121.504 21.9624L125.604 21.9733L129.704 21.9842L131.492 25.0794L133.28 28.1747H134.637H135.994L135.626 27.5407L135.258 26.9068L130.957 19.4731L126.657 12.0395L126.538 12.0246L126.418 12.0096L126.367 12.0743ZM145.083 12.2684L144.963 12.5368L141.326 20.3301L137.689 28.1235V28.1491V28.1747L138.099 28.1734L138.51 28.1721L141.338 22.0823L144.167 15.9925L144.371 15.9933L144.576 15.994L147.083 21.4146L149.59 26.8353L149.626 26.7964L149.662 26.7576L152.164 21.3727L154.666 15.9878L154.862 16.0026L155.058 16.0174L157.879 22.0836L160.699 28.1498L161.977 28.1631L163.256 28.1764L163.239 28.132L163.222 28.0876L159.468 20.0534L155.714 12.0193L155.682 12.0542L155.65 12.0893L153.2 17.3599L150.751 22.6306L150.619 22.9191L150.487 23.2077L147.887 17.6485L145.287 12.0893L145.245 12.0447L145.203 12L145.083 12.2684ZM165.982 20.0947V28.1747L173.303 28.1739L180.625 28.173L180.813 27.8258L181 27.4786H174.659H168.319V22.4068V17.335H172.665H177.012L177.19 17.0162L177.368 16.6973V16.6682V16.6389H172.844H168.319V14.6749V12.7108H174.008H179.697L179.875 12.392L180.053 12.0731V12.0439V12.0147H173.018H165.982V20.0947ZM88.2394 12.7544L88.7367 12.8656L89.1842 13.0181L89.6317 13.1705L90.0291 13.3699L90.4265 13.5693L90.7983 13.8203L91.1702 14.0712L91.6126 14.4973L92.0549 14.9235L92.3668 15.3388L92.6787 15.7541L92.9277 16.2338L93.1768 16.7135L93.3512 17.1859L93.5258 17.6582L93.6527 18.2301L93.7796 18.8019L93.8372 19.3737L93.8948 19.9455L93.8651 20.519L93.8353 21.0924L93.7369 21.6681L93.6385 22.2438L93.481 22.7355L93.3236 23.2272L93.1298 23.6469L92.9361 24.0665L92.6031 24.5667L92.2703 25.067L91.8212 25.5159L91.372 25.9647L90.913 26.2713L90.454 26.5779L90.0425 26.7734L89.6311 26.9689L89.159 27.1199L88.687 27.2709L88.312 27.3481L87.9371 27.4254L87.4916 27.4764L87.0461 27.5275L84.448 27.5279L81.85 27.5283V20.0669V12.6056L84.7961 12.6244L87.7422 12.6433L88.2394 12.7544ZM10.5583 12.8512L10.8433 12.9658L10.992 13.1463L11.1408 13.3268L11.2238 13.5533L11.3069 13.7798L11.33 14.6788L11.353 15.5778L11.2923 15.8705L11.2315 16.1631L11.0733 16.3213L10.9151 16.4795L10.7186 16.5441L10.522 16.6085L6.9295 16.6264L3.33699 16.6443V14.6748V12.7052L6.80519 12.7209L10.2734 12.7365L10.5583 12.8512ZM30.287 12.762L30.6599 12.8102L30.8835 12.925L31.1072 13.0398L31.2563 13.3314L31.4055 13.623L31.4238 14.5467L31.4421 15.4704L31.3818 15.808L31.3214 16.1456L31.2013 16.2884L31.0812 16.4311L30.8457 16.5215L30.6102 16.6119L25.9735 16.6275L21.3368 16.6432V14.677V12.7108L25.6254 12.7123L29.9141 12.7139L30.287 12.762ZM47.9217 18.2301L49.6285 21.1886L45.9911 21.2014L42.3538 21.2141L42.3336 21.1939L42.3134 21.1737L43.9131 18.3966L45.5127 15.6196L45.6343 15.4305L45.7558 15.2414L45.9854 15.2565L46.2149 15.2715L47.9217 18.2301ZM125.924 15.4331L126.044 15.6196L127.644 18.3961L129.244 21.1725L129.223 21.1933L129.202 21.2141L125.566 21.2014L121.93 21.1886L123.448 18.5533L124.966 15.9179L125.164 15.5823L125.362 15.2467H125.583H125.804L125.924 15.4331ZM10.696 17.3845L11.1187 17.4331L11.417 17.5091L11.7154 17.5852L12.0705 17.7585L12.4257 17.9319L12.7068 18.213L12.9879 18.4941L13.185 18.9013L13.3821 19.3085L13.4787 19.7513L13.5754 20.1941L13.6274 20.8353L13.6794 21.4765L13.6793 22.3767L13.6792 23.277L13.6284 23.9435L13.5775 24.6099L13.4791 25.0622L13.3807 25.5145L13.1874 25.9183L12.9941 26.322L12.7263 26.5895L12.4584 26.857L12.1615 27.0141L11.8645 27.1712L11.5165 27.2747L11.1684 27.3781L10.7209 27.428L10.2734 27.4778L6.80519 27.4782L3.33699 27.4786V22.4068V17.335L6.80519 17.3354L10.2734 17.3358L10.696 17.3845Z" fill="black"/>
<path fill-rule="evenodd" clip-rule="evenodd" d="M1 20.0927V28.1747H5.97839H10.9567L11.4852 28.0969L12.0137 28.0191L12.5506 27.8415L13.0875 27.6638L13.5187 27.4096L13.9499 27.1554L14.343 26.7824L14.7361 26.4095L14.9479 26.1112L15.1596 25.8128L15.3583 25.4151L15.5571 25.0173L15.6846 24.6132L15.812 24.2092L15.8997 23.7679L15.9874 23.3267L15.9869 22.4068L15.9864 21.4869L15.8965 20.9897L15.8066 20.4925L15.6847 20.0698L15.5627 19.6472L15.3428 19.1822L15.1229 18.7172L14.9014 18.4067L14.6799 18.0963L14.304 17.7452L13.928 17.3942L13.4616 17.1627L12.9953 16.9312L12.5631 16.8437L12.1309 16.7562L12.3295 16.6967L12.5282 16.6372L12.8186 16.4189L13.109 16.2006L13.2632 15.9847L13.4175 15.7688L13.5222 15.5623L13.6268 15.3558L13.6712 15.0725L13.7156 14.7893L13.6758 14.3937L13.6359 13.9982L13.5553 13.7554L13.4746 13.5126L13.2828 13.2159L13.0911 12.9192L12.8238 12.7174L12.5565 12.5156L12.2659 12.387L11.9753 12.2586L11.5719 12.1512L11.1684 12.0438L6.0842 12.0272L1 12.0107V20.0927ZM18.9998 20.0932V28.1747H20.1683H21.3368V22.7544V17.3341L23.7795 17.347L26.2222 17.3599L29.3286 22.7673L32.435 28.1747H33.7779H35.1208L35.0944 28.1059L35.068 28.0372L31.9814 22.7053L28.8947 17.3734V17.3542V17.335L29.9762 17.3347L31.0577 17.3345L31.5301 17.2628L32.0024 17.1912L32.3256 17.0909L32.6488 16.9906L32.9472 16.8141L33.2455 16.6377L33.4391 16.427L33.6328 16.2163L33.7738 15.9177L33.9148 15.6191L33.9655 15.3515L34.0162 15.0839L34.0154 14.78L34.0145 14.476L33.9446 14.1463L33.8747 13.8165L33.7516 13.5744L33.6285 13.3323L33.4714 13.1353L33.3142 12.9383L33.0561 12.7426L32.798 12.5469L32.4861 12.4041L32.1741 12.2612L31.7651 12.152L31.356 12.0427L25.1779 12.0272L18.9998 12.0117V20.0932ZM42.1695 19.9778L37.5714 27.9409L37.5077 28.0578L37.444 28.1747H37.8609H38.2779L40.0837 25.067L41.8895 21.9593H45.9778H50.0661L51.8545 25.0546L53.6429 28.1498L54.9969 28.1631L56.3508 28.1763L56.334 28.1301L56.3171 28.0839L51.668 20.0493L47.0189 12.0148L46.8932 12.0147L46.7675 12.0147L42.1695 19.9778ZM58.8779 20.0947V28.1747H59.2508H59.6237V20.4427V12.7108H59.9447H60.2657L66.7626 20.4427L73.2594 28.1747H74.1984H75.1374V20.0947V12.0147H74.7644H74.3915V18.8516V25.6885H74.2976H74.2037L68.4741 18.8516L62.7445 12.0147H60.8111H58.8779V20.0947ZM79.513 20.092V28.1747H83.4042H87.2953L87.9262 28.1009L88.5572 28.0271L89.0447 27.923L89.5322 27.819L90.0543 27.6692L90.5764 27.5193L91.1097 27.3016L91.6429 27.0838L91.9052 26.9509L92.1676 26.818L92.5405 26.5928L92.9134 26.3676L93.278 26.0993L93.6425 25.831L94.0429 25.449L94.4432 25.067L94.7638 24.6569L95.0845 24.2468L95.3199 23.8365L95.5553 23.4261L95.7358 23.0035L95.9163 22.5808L96.0384 22.1085L96.1605 21.6361L96.2218 21.1471L96.2831 20.658L96.255 19.8045L96.2268 18.951L96.1235 18.4688L96.0201 17.9865L95.8657 17.5489L95.7113 17.1113L95.5118 16.7135L95.3123 16.3157L95.0086 15.8682L94.7048 15.4207L94.1572 14.8738L93.6096 14.3268L93.1372 13.9906L92.6648 13.6544L91.8692 13.2587L91.0737 12.8629L90.5516 12.6839L90.0295 12.5049L89.4328 12.3624L88.8361 12.2199L88.314 12.1328L87.7919 12.0456L83.6525 12.0275L79.513 12.0094V20.092ZM98.7559 20.0947V28.1747H99.1288H99.5018V20.4405V12.7063L99.834 12.7209L100.166 12.7357L106.642 20.4427L113.118 28.1498L114.067 28.1634L115.015 28.1768V20.0958V12.0147H114.667H114.319V18.8516V25.6885H114.201H114.083L108.354 18.8516L102.624 12.0147H100.69H98.7559V20.0947ZM126.367 12.0743L126.316 12.139L121.733 20.0841L117.149 28.0293L117.12 28.1041L117.091 28.1789L117.503 28.1644L117.914 28.1498L119.709 25.0561L121.504 21.9624L125.604 21.9733L129.704 21.9842L131.492 25.0794L133.28 28.1747H134.637H135.994L135.626 27.5407L135.258 26.9068L130.957 19.4731L126.657 12.0395L126.538 12.0246L126.418 12.0096L126.367 12.0743ZM145.083 12.2684L144.963 12.5368L141.326 20.3301L137.689 28.1235V28.1491V28.1747L138.099 28.1734L138.51 28.1721L141.338 22.0823L144.167 15.9925L144.371 15.9933L144.576 15.994L147.083 21.4146L149.59 26.8353L149.626 26.7964L149.662 26.7576L152.164 21.3727L154.666 15.9878L154.862 16.0026L155.058 16.0174L157.879 22.0836L160.699 28.1498L161.977 28.1631L163.256 28.1764L163.239 28.132L163.222 28.0876L159.468 20.0534L155.714 12.0193L155.682 12.0542L155.65 12.0893L153.2 17.3599L150.751 22.6306L150.619 22.9191L150.487 23.2077L147.887 17.6485L145.287 12.0893L145.245 12.0447L145.203 12L145.083 12.2684ZM165.982 20.0947V28.1747L173.303 28.1739L180.625 28.173L180.813 27.8258L181 27.4786H174.659H168.319V22.4068V17.335H172.665H177.012L177.19 17.0162L177.368 16.6973V16.6682V16.6389H172.844H168.319V14.6749V12.7108H174.008H179.697L179.875 12.392L180.053 12.0731V12.0439V12.0147H173.018H165.982V20.0947ZM88.2394 12.7544L88.7367 12.8656L89.1842 13.0181L89.6317 13.1705L90.0291 13.3699L90.4265 13.5693L90.7983 13.8203L91.1702 14.0712L91.6126 14.4973L92.0549 14.9235L92.3668 15.3388L92.6787 15.7541L92.9277 16.2338L93.1768 16.7135L93.3512 17.1859L93.5258 17.6582L93.6527 18.2301L93.7796 18.8019L93.8372 19.3737L93.8948 19.9455L93.8651 20.519L93.8353 21.0924L93.7369 21.6681L93.6385 22.2438L93.481 22.7355L93.3236 23.2272L93.1298 23.6469L92.9361 24.0665L92.6031 24.5667L92.2703 25.067L91.8212 25.5159L91.372 25.9647L90.913 26.2713L90.454 26.5779L90.0425 26.7734L89.6311 26.9689L89.159 27.1199L88.687 27.2709L88.312 27.3481L87.9371 27.4254L87.4916 27.4764L87.0461 27.5275L84.448 27.5279L81.85 27.5283V20.0669V12.6056L84.7961 12.6244L87.7422 12.6433L88.2394 12.7544ZM10.5583 12.8512L10.8433 12.9658L10.992 13.1463L11.1408 13.3268L11.2238 13.5533L11.3069 13.7798L11.33 14.6788L11.353 15.5778L11.2923 15.8705L11.2315 16.1631L11.0733 16.3213L10.9151 16.4795L10.7186 16.5441L10.522 16.6085L6.9295 16.6264L3.33699 16.6443V14.6748V12.7052L6.80519 12.7209L10.2734 12.7365L10.5583 12.8512ZM30.287 12.762L30.6599 12.8102L30.8835 12.925L31.1072 13.0398L31.2563 13.3314L31.4055 13.623L31.4238 14.5467L31.4421 15.4704L31.3818 15.808L31.3214 16.1456L31.2013 16.2884L31.0812 16.4311L30.8457 16.5215L30.6102 16.6119L25.9735 16.6275L21.3368 16.6432V14.677V12.7108L25.6254 12.7123L29.9141 12.7139L30.287 12.762ZM47.9217 18.2301L49.6285 21.1886L45.9911 21.2014L42.3538 21.2141L42.3336 21.1939L42.3134 21.1737L43.9131 18.3966L45.5127 15.6196L45.6343 15.4305L45.7558 15.2414L45.9854 15.2565L46.2149 15.2715L47.9217 18.2301ZM125.924 15.4331L126.044 15.6196L127.644 18.3961L129.244 21.1725L129.223 21.1933L129.202 21.2141L125.566 21.2014L121.93 21.1886L123.448 18.5533L124.966 15.9179L125.164 15.5823L125.362 15.2467H125.583H125.804L125.924 15.4331ZM10.696 17.3845L11.1187 17.4331L11.417 17.5091L11.7154 17.5852L12.0705 17.7585L12.4257 17.9319L12.7068 18.213L12.9879 18.4941L13.185 18.9013L13.3821 19.3085L13.4787 19.7513L13.5754 20.1941L13.6274 20.8353L13.6794 21.4765L13.6793 22.3767L13.6792 23.277L13.6284 23.9435L13.5775 24.6099L13.4791 25.0622L13.3807 25.5145L13.1874 25.9183L12.9941 26.322L12.7263 26.5895L12.4584 26.857L12.1615 27.0141L11.8645 27.1712L11.5165 27.2747L11.1684 27.3781L10.7209 27.428L10.2734 27.4778L6.80519 27.4782L3.33699 27.4786V22.4068V17.335L6.80519 17.3354L10.2734 17.3358L10.696 17.3845Z" stroke="white" stroke-width="2" mask="url(#path-2-outside-1_195_733)"/>
</g>
</g>
</svg>
