<svg width="24" height="24" viewBox="0 0 24 24" fill="none" xmlns="http://www.w3.org/2000/svg">
<g id="akar-icons:shopping-bag">
<g id="Group">
<path id="Vector" d="M3.82477 9.84C3.86576 9.33881 4.0976 8.87115 4.47413 8.53017C4.85067 8.18918 5.34426 7.9999 5.8566 8H18.1434C18.6557 7.9999 19.1493 8.18918 19.5259 8.53017C19.9024 8.87115 20.1342 9.33881 20.1752 9.84L20.9935 19.84C21.016 20.1152 20.9802 20.392 20.8883 20.6529C20.7965 20.9139 20.6506 21.1533 20.4598 21.3562C20.2691 21.5592 20.0376 21.7211 19.7799 21.8319C19.5222 21.9427 19.244 21.9999 18.9627 22H5.03735C4.75603 21.9999 4.47778 21.9427 4.22011 21.8319C3.96244 21.7211 3.73093 21.5592 3.54016 21.3562C3.3494 21.1533 3.2035 20.9139 3.11166 20.6529C3.01982 20.392 2.98403 20.1152 3.00653 19.84L3.82477 9.84V9.84Z" stroke="#181818" stroke-linecap="round" stroke-linejoin="round"/>
<path id="Vector_2" d="M16 11V6C16 4.93913 15.5786 3.92172 14.8284 3.17157C14.0783 2.42143 13.0609 2 12 2C10.9391 2 9.92172 2.42143 9.17157 3.17157C8.42143 3.92172 8 4.93913 8 6V11" stroke="#181818" stroke-linecap="round" stroke-linejoin="round"/>
</g>
</g>
</svg>
