<svg width="24" height="24" viewBox="0 0 24 24" fill="none" xmlns="http://www.w3.org/2000/svg">
<g id="fluent-emoji-high-contrast:child">
<path id="Vector" d="M7.41225 9.94725C7.803 9.80775 8.36325 9.70275 9.1035 9.7725C9.20246 9.78175 9.30104 9.75131 9.37755 9.68787C9.45407 9.62444 9.50225 9.53321 9.5115 9.43425C9.52075 9.33529 9.49031 9.23671 9.42687 9.1602C9.36344 9.08368 9.27221 9.0355 9.17325 9.02625C8.3235 8.946 7.65375 9.06525 7.1595 9.2415C7.11172 9.25697 7.06754 9.28187 7.02957 9.31474C6.9916 9.3476 6.96062 9.38776 6.93846 9.43283C6.91631 9.4779 6.90343 9.52695 6.90059 9.57709C6.89776 9.62723 6.90502 9.67743 6.92195 9.72471C6.93888 9.77198 6.96514 9.81538 6.99916 9.85232C7.03318 9.88926 7.07427 9.91899 7.12 9.93974C7.16573 9.9605 7.21516 9.97186 7.26536 9.97315C7.31557 9.97444 7.36552 9.96563 7.41225 9.94725ZM14.8965 9.77175C15.6367 9.702 16.1962 9.80775 16.5878 9.9465C16.6341 9.96305 16.6833 9.97029 16.7325 9.96783C16.7817 9.96536 16.8299 9.95323 16.8744 9.93213C16.9189 9.91103 16.9589 9.88137 16.9919 9.84484C17.0249 9.80831 17.0505 9.76564 17.067 9.71925C17.0835 9.67286 17.0908 9.62367 17.0883 9.57448C17.0859 9.52528 17.0737 9.47706 17.0526 9.43256C17.0315 9.38806 17.0019 9.34815 16.9653 9.31511C16.9288 9.28207 16.8861 9.25655 16.8397 9.24C16.3455 9.06375 15.675 8.9445 14.8253 9.02475C14.7262 9.0342 14.6349 9.08261 14.5716 9.15934C14.5082 9.23606 14.4779 9.33482 14.4874 9.43387C14.4968 9.53293 14.5452 9.62418 14.622 9.68754C14.6987 9.75091 14.7974 9.7812 14.8965 9.77175ZM12.003 15.75C12.5055 15.75 12.9555 15.4905 13.2172 15.0952C13.4572 14.7367 13.2023 14.25 12.7748 14.25H11.2222C10.7948 14.25 10.5398 14.7367 10.7797 15.0952C11.0498 15.4905 11.4998 15.75 12.003 15.75ZM8.583 12.2955C8.46525 12.2955 8.35425 12.3187 8.25375 12.3615C8.28037 12.3851 8.30168 12.4141 8.31629 12.4465C8.33089 12.479 8.33847 12.5142 8.3385 12.5497C8.33771 12.6178 8.30995 12.6829 8.2613 12.7305C8.21266 12.7782 8.1471 12.8046 8.079 12.804C8.03716 12.804 7.99594 12.794 7.95876 12.7748C7.92157 12.7556 7.88952 12.7278 7.86525 12.6937C7.78716 12.8207 7.74587 12.9669 7.746 13.116C7.746 13.254 7.78275 13.3837 7.842 13.5007H9.3225C9.38448 13.3819 9.41738 13.25 9.4185 13.116C9.41791 13.0071 9.39579 12.8995 9.35341 12.7992C9.31103 12.699 9.24923 12.6081 9.17157 12.5318C9.0939 12.4555 9.00191 12.3954 8.9009 12.3548C8.79988 12.3143 8.69184 12.2941 8.583 12.2955ZM10.0492 13.1152C10.0492 13.2502 10.035 13.3717 9.99975 13.4925H10.116C10.353 13.4925 10.5382 13.2825 10.494 13.0575C10.2863 12.0262 9.36075 11.25 8.2425 11.25C7.16925 11.25 6.2655 11.976 6.01425 12.9487C5.94 13.224 6.162 13.4925 6.459 13.4925H7.16775C7.13624 13.3692 7.11938 13.2425 7.1175 13.1152C7.1175 12.324 7.77675 11.6782 8.58375 11.6782C9.39075 11.6782 10.0492 12.3247 10.0492 13.1152ZM21.5985 10.0305C21.6863 9.885 21.75 9.7245 21.75 9.54375V8.139C21.7558 7.26852 21.5234 6.41305 21.0779 5.6652C20.6323 4.91734 19.9907 4.30562 19.2225 3.89625L18.96 3.75375H19.605C19.7151 3.75336 19.8236 3.72691 19.9215 3.67656C20.0194 3.62621 20.104 3.5534 20.1684 3.46408C20.2328 3.37475 20.2751 3.27146 20.2919 3.16264C20.3087 3.05382 20.2995 2.94258 20.265 2.838C20.0714 2.23208 19.6903 1.70333 19.1767 1.32805C18.6631 0.952759 18.0436 0.750342 17.4075 0.75H9.285C8.37 0.75 7.6275 1.44075 7.5225 2.33475C7.515 2.33475 7.506 2.337 7.49625 2.3385C7.4865 2.34 7.4775 2.34225 7.47 2.34225H7.14C4.44 2.34225 2.25 4.5345 2.25 7.23825V9.41625C2.25 9.65625 2.2935 9.87975 2.382 10.0657C1.81801 10.6695 1.50298 11.4641 1.5 12.2902C1.50051 12.9749 1.71581 13.6421 2.11555 14.1979C2.5153 14.7538 3.07935 15.1702 3.72825 15.3885C3.732 15.4102 3.73875 15.4335 3.7425 15.4552V17.7397C3.7425 19.5022 5.175 20.9347 6.9375 20.9347H7.044C8.42525 21.9529 10.0965 22.5015 11.8125 22.5C13.5817 22.5 15.228 21.9412 16.5863 20.934H17.0625C18.825 20.934 20.2575 19.5015 20.2575 17.739V15.381C20.9094 15.1678 21.4772 14.754 21.88 14.1988C22.2827 13.6436 22.4997 12.9754 22.5 12.2895C22.5 11.4135 22.155 10.62 21.5985 10.0305ZM19.2653 14.049H19.2375L18.5602 14.0385L18.4815 14.7105C18.4463 15.0075 18.3923 15.2925 18.3293 15.5715C18.1275 16.4987 17.7488 17.3782 17.214 18.162C15.9802 19.953 14.01 21 11.8125 21C9.7755 21 7.938 20.1037 6.69825 18.5527C6.08925 17.7907 5.6265 16.8705 5.3565 15.8182C5.25916 15.4476 5.18749 15.0707 5.142 14.6902L5.07525 14.112L4.49925 14.0325C3.65775 13.9185 3 13.1857 3 12.2902C3 11.7442 3.25425 11.271 3.636 10.9492L3.675 12.0142C3.69 12.4275 4.0875 12.75 4.5 12.75V9.57975C4.5915 8.83725 5.0865 8.25975 5.8575 8.25975H6.7875C8.25 8.25975 9.4725 7.23075 9.78 5.86425C10.2381 6.59689 10.8749 7.20109 11.6305 7.62011C12.3862 8.03914 13.2359 8.25924 14.1 8.25975H17.9775C18.825 8.25975 19.3875 8.88825 19.5 9.7065V12.75C19.9125 12.75 20.31 12.4275 20.325 12.0142L20.3602 11.1495C20.694 11.4667 21 11.8665 21 12.2902C21 13.2682 20.2162 14.049 19.2653 14.049ZM14.2717 16.23C13.6125 16.5847 12.8415 16.7797 12.0098 16.7797C11.2223 16.7827 10.446 16.5941 9.74775 16.23C9.69922 16.2039 9.64337 16.1948 9.58908 16.2042C9.5348 16.2135 9.4852 16.2408 9.44819 16.2816C9.41118 16.3224 9.38889 16.3744 9.38487 16.4293C9.38085 16.4843 9.39533 16.539 9.426 16.5847C9.70319 17.0186 10.0852 17.3757 10.5367 17.6231C10.9883 17.8705 11.4949 18.0001 12.0098 18.0001C12.5246 18.0001 13.0312 17.8705 13.4828 17.6231C13.9343 17.3757 14.3163 17.0186 14.5935 16.5847C14.7292 16.3732 14.4967 16.1167 14.2717 16.23ZM15.7568 11.25C14.6393 11.25 13.7137 12.0262 13.506 13.0575C13.4618 13.2825 13.647 13.4925 13.884 13.4925H14.0002C13.965 13.3699 13.948 13.2428 13.95 13.1152C13.95 12.324 14.6085 11.6782 15.4155 11.6782C16.2233 11.6782 16.8818 12.324 16.8818 13.1152C16.8818 13.2435 16.86 13.371 16.8323 13.4925H17.541C17.8372 13.4925 18.0592 13.224 17.9858 12.948C17.7345 11.976 16.8308 11.25 15.7568 11.25ZM15.4163 12.2955C15.3127 12.2955 15.2137 12.3135 15.1222 12.3472C15.1539 12.3706 15.1797 12.4012 15.1974 12.4363C15.2151 12.4715 15.2243 12.5104 15.2242 12.5497C15.224 12.5834 15.217 12.6167 15.2039 12.6477C15.1907 12.6787 15.1716 12.7069 15.1475 12.7305C15.1235 12.7541 15.0951 12.7727 15.0638 12.7853C15.0326 12.798 14.9992 12.8043 14.9655 12.804C14.9153 12.8043 14.8661 12.79 14.8239 12.7628C14.7817 12.7357 14.7483 12.6968 14.7277 12.651C14.6314 12.7869 14.5797 12.9494 14.58 13.116C14.58 13.254 14.6168 13.3837 14.676 13.5007H16.1565C16.2187 13.382 16.2519 13.2501 16.2533 13.116C16.2525 13.0071 16.2302 12.8994 16.1876 12.7991C16.1451 12.6988 16.0831 12.608 16.0053 12.5317C15.9276 12.4555 15.8355 12.3953 15.7344 12.3548C15.6333 12.3143 15.5252 12.2941 15.4163 12.2955Z" fill="#7E8494"/>
</g>
</svg>
