<svg width="24" height="24" viewBox="0 0 24 24" fill="none" xmlns="http://www.w3.org/2000/svg">
<g id="Menuitem">
<path id="Vector" d="M16.4821 4.00919C17.0894 3.99319 17.6766 4.10518 18.2438 4.34517C18.8111 4.58515 19.3105 4.92513 19.7419 5.3651C20.1733 5.80507 20.4969 6.31303 20.7126 6.88899C20.9283 7.46495 21.0202 8.05691 20.9883 8.66487C20.9883 9.36882 20.8484 10.0488 20.5688 10.7047C20.2892 11.3607 19.8937 11.9366 19.3824 12.4326L12 19.6081L4.61764 12.4326C4.1063 11.9366 3.71082 11.3607 3.43118 10.7047C3.15155 10.0488 3.01173 9.36882 3.01173 8.66487C2.97977 8.05691 3.07165 7.46495 3.28737 6.88899C3.50309 6.31303 3.82667 5.80507 4.25811 5.3651C4.68954 4.92513 5.18889 4.58515 5.75615 4.34517C6.32341 4.10518 6.91064 3.99319 7.51785 4.00919C8.23691 4.00919 8.92402 4.16518 9.57916 4.47716C10.2343 4.78914 10.7856 5.22511 11.233 5.78507L12 6.769L12.791 5.78507C13.2384 5.22511 13.7857 4.78914 14.4328 4.47716C15.08 4.16518 15.7631 4.00919 16.4821 4.00919ZM16.4821 3.00126C15.6033 3.00126 14.7724 3.18925 13.9894 3.56522C13.2064 3.9412 12.5433 4.47316 12 5.16111C11.4567 4.47316 10.7936 3.9412 10.0106 3.56522C9.22762 3.18925 8.3967 3.00126 7.51785 3.00126C6.76683 2.98526 6.04777 3.12125 5.36067 3.40924C4.67356 3.69721 4.07035 4.10918 3.55103 4.64515C3.03171 5.18111 2.63622 5.79707 2.36458 6.49302C2.09293 7.18897 1.97309 7.91292 2.00505 8.66487C2.00505 9.51281 2.17283 10.3247 2.50839 11.1007C2.84395 11.8766 3.31534 12.5606 3.92254 13.1526L12 21L20.1014 13.1526C20.7086 12.5606 21.176 11.8766 21.5036 11.1007C21.8312 10.3247 21.995 9.51281 21.995 8.66487C22.0269 7.91292 21.9071 7.18897 21.6354 6.49302C21.3638 5.79707 20.9683 5.18111 20.449 4.64515C19.9296 4.10918 19.3264 3.69721 18.6393 3.40924C17.9522 3.12125 17.2332 2.98526 16.4821 3.00126Z" fill="black"/>
</g>
</svg>
