<svg width="24" height="24" viewBox="0 0 24 24" fill="none" xmlns="http://www.w3.org/2000/svg">
<g id="fluent-emoji-high-contrast:woman" clip-path="url(#clip0_195_847)">
<g id="Group">
<path id="Vector" d="M7.24295 10.8219L7.24895 10.8181C7.30045 10.7885 7.35325 10.7612 7.4072 10.7364C7.5197 10.6831 7.6847 10.6126 7.88645 10.5481C8.29145 10.4184 8.8277 10.3209 9.38494 10.4191C9.48101 10.4323 9.57846 10.4078 9.65684 10.3507C9.73522 10.2936 9.78843 10.2084 9.80532 10.1129C9.8222 10.0174 9.80144 9.91911 9.7474 9.8386C9.69335 9.75809 9.61022 9.70165 9.51545 9.68111C8.7977 9.55361 8.1332 9.68111 7.65845 9.83336C7.40468 9.91449 7.1585 10.0176 6.9227 10.1416C6.9076 10.15 6.8926 10.1585 6.8777 10.1671L6.8642 10.1746L6.8597 10.1769L6.8582 10.1776L6.85745 10.1784C6.77211 10.2295 6.71058 10.3124 6.68639 10.4089C6.67441 10.4567 6.67196 10.5063 6.67917 10.5551C6.68639 10.6038 6.70313 10.6506 6.72845 10.6929C6.75376 10.7351 6.78714 10.772 6.8267 10.8013C6.86625 10.8307 6.9112 10.8519 6.95898 10.8639C7.05547 10.8881 7.15761 10.873 7.24295 10.8219ZM8.2502 11.5501C8.3132 11.5501 8.37545 11.5546 8.4377 11.5621C8.92454 11.5071 9.41428 11.637 9.80998 11.9259C10.2057 12.2147 10.4785 12.6417 10.5744 13.1221C10.5828 13.1685 10.5809 13.2162 10.5687 13.2618C10.5566 13.3073 10.5345 13.3497 10.5042 13.3858C10.4738 13.4219 10.4359 13.4508 10.3931 13.4706C10.3503 13.4903 10.3036 13.5004 10.2564 13.5001H10.1454C10.1754 13.3966 10.1897 13.2856 10.1897 13.1679C10.1897 12.4734 9.6347 11.9191 8.94545 11.9191C8.75281 11.9185 8.56264 11.9625 8.38984 12.0476C8.21703 12.1328 8.06629 12.2568 7.94941 12.4099C7.83253 12.563 7.75268 12.7411 7.71612 12.9303C7.67957 13.1194 7.68729 13.3145 7.7387 13.5001H7.1387C7.0802 13.5007 7.02233 13.488 6.96951 13.4629C6.91669 13.4377 6.87032 13.4008 6.83392 13.355C6.79753 13.3092 6.77208 13.2557 6.75952 13.1986C6.74696 13.1415 6.74762 13.0822 6.76145 13.0254V13.0231L6.69395 12.9751C6.39395 12.7501 6.31895 12.3751 6.76895 12.0751C7.21895 11.7001 7.7252 11.5501 8.2502 11.5501ZM10.7222 15.5221L11.4654 13.1446C11.6327 12.6189 12.3752 12.6189 12.5349 13.1446L13.2774 15.5221C13.3121 15.6356 13.3197 15.7556 13.2994 15.8725C13.2792 15.9894 13.2318 16.0999 13.1609 16.195C13.0901 16.2902 12.998 16.3674 12.8918 16.4204C12.7857 16.4734 12.6686 16.5007 12.5499 16.5001H11.4504C11.3316 16.5014 11.2141 16.4745 11.1077 16.4217C11.0012 16.3689 10.9087 16.2916 10.8378 16.1963C10.7668 16.1009 10.7195 15.9901 10.6995 15.873C10.6795 15.7558 10.6876 15.6356 10.7229 15.5221H10.7222ZM12.0002 17.5464C11.327 17.5507 10.6626 17.3933 10.0629 17.0874C9.8717 16.9899 9.66545 17.2059 9.7862 17.3799C10.0286 17.7448 10.3577 18.0439 10.7441 18.2503C11.1305 18.4567 11.5621 18.564 12.0002 18.5626C12.4383 18.564 12.8699 18.4567 13.2563 18.2503C13.6427 18.0439 13.9718 17.7448 14.2142 17.3799C14.3342 17.1991 14.1287 16.9899 13.9374 17.0874C13.3381 17.3941 12.6735 17.5516 12.0002 17.5464ZM15.6414 11.5726C15.7277 11.5576 15.8139 11.5501 15.9002 11.5501C16.4252 11.5501 16.9314 11.7001 17.3814 12.0751C17.8314 12.3751 17.7564 12.7501 17.4564 12.9751L17.2502 13.1191C17.2497 13.1696 17.2393 13.2196 17.2195 13.2661C17.1997 13.3126 17.1709 13.3547 17.1349 13.3901C17.0988 13.4255 17.0561 13.4534 17.0092 13.4723C16.9624 13.4911 16.9122 13.5006 16.8617 13.5001H16.2617C16.3131 13.3144 16.3208 13.1193 16.2842 12.9301C16.2476 12.7409 16.1677 12.5627 16.0508 12.4096C15.9338 12.2565 15.7829 12.1325 15.6101 12.0474C15.4372 11.9623 15.2469 11.9184 15.0542 11.9191C14.8902 11.9183 14.7277 11.9501 14.5762 12.0126C14.4246 12.0752 14.287 12.1672 14.1713 12.2834C14.0556 12.3996 13.9641 12.5376 13.9022 12.6894C13.8403 12.8413 13.8092 13.0039 13.8107 13.1679C13.8107 13.2856 13.8257 13.3966 13.8557 13.5001H13.7439C13.6968 13.5004 13.6501 13.4903 13.6073 13.4706C13.5645 13.4508 13.5266 13.4219 13.4962 13.3858C13.4658 13.3497 13.4438 13.3073 13.4317 13.2618C13.4195 13.2162 13.4176 13.1685 13.4259 13.1221C13.5234 12.6276 13.8085 12.19 14.2216 11.9011C14.6346 11.6122 15.1435 11.4945 15.6414 11.5726Z" fill="#7E8494"/>
<path id="Vector_2" d="M8.9456 12.4579C9.06815 12.4576 9.18869 12.489 9.29551 12.549C9.40233 12.6091 9.4918 12.6957 9.55522 12.8006C9.61863 12.9055 9.65384 13.025 9.65741 13.1474C9.66098 13.2699 9.6328 13.3913 9.5756 13.4997H8.31635C8.26358 13.3968 8.23582 13.283 8.23535 13.1674C8.23535 13.0384 8.26985 12.9169 8.3306 12.8127C8.35648 12.8534 8.39499 12.8846 8.44024 12.9014C8.4855 12.9183 8.53502 12.9199 8.58126 12.9059C8.62749 12.892 8.66789 12.8633 8.6963 12.8242C8.72471 12.7852 8.73957 12.7379 8.7386 12.6897C8.73866 12.657 8.73165 12.6248 8.71806 12.5951C8.70447 12.5655 8.68461 12.5391 8.65985 12.5179C8.74992 12.4783 8.84722 12.4579 8.9456 12.4579ZM14.3366 13.1674C14.3365 13.0271 14.3783 12.89 14.4566 12.7737C14.4889 12.8562 14.5691 12.9147 14.6621 12.9147C14.7097 12.9142 14.7559 12.8986 14.794 12.8702C14.8322 12.8418 14.8604 12.8021 14.8746 12.7567C14.8887 12.7113 14.8881 12.6625 14.8729 12.6175C14.8576 12.5724 14.8285 12.5334 14.7896 12.5059C14.9247 12.4528 15.0727 12.4424 15.2139 12.476C15.355 12.5096 15.4825 12.5857 15.5792 12.6939C15.6758 12.8022 15.737 12.9374 15.7544 13.0815C15.7719 13.2255 15.7448 13.3715 15.6769 13.4997H14.4191C14.3658 13.3969 14.3376 13.2831 14.3366 13.1674ZM17.1431 10.1779L17.1409 10.1764L17.1371 10.1742L17.1236 10.1667C17.0556 10.1286 16.9863 10.0929 16.9159 10.0594C16.7302 9.9711 16.5387 9.89543 16.3429 9.8329C15.8674 9.6814 15.2029 9.5539 14.4851 9.68065C14.3903 9.70119 14.3072 9.75763 14.2532 9.83814C14.1991 9.91865 14.1783 10.017 14.1952 10.1125C14.2121 10.2079 14.2653 10.2932 14.3437 10.3503C14.4221 10.4074 14.5195 10.4319 14.6156 10.4187C15.1729 10.3212 15.7084 10.4187 16.1141 10.5477C16.3343 10.6183 16.5477 10.7086 16.7516 10.8177L16.7576 10.8214C16.7999 10.8467 16.8467 10.8635 16.8954 10.8707C16.9441 10.8779 16.9938 10.8754 17.0416 10.8635C17.0893 10.8515 17.1343 10.8302 17.1738 10.8009C17.2134 10.7715 17.2468 10.7347 17.2721 10.6924C17.2974 10.6502 17.3142 10.6033 17.3214 10.5546C17.3286 10.5059 17.3261 10.4562 17.3142 10.4084C17.3022 10.3607 17.2809 10.3157 17.2516 10.2762C17.2222 10.2366 17.1854 10.2032 17.1431 10.1779Z" fill="#7E8494"/>
<path id="Vector_3" d="M7.641 2.9865C8.13822 2.29482 8.7928 1.73129 9.55071 1.34242C10.3086 0.953556 11.1482 0.750496 12 0.75C12.8519 0.750496 13.6914 0.953556 14.4493 1.34242C15.2072 1.73129 15.8618 2.29482 16.359 2.9865L16.3665 2.997C16.3733 2.99892 16.3804 2.99992 16.3875 3C17.8096 3.0004 19.1733 3.5655 20.1789 4.57108C21.1845 5.57666 21.7496 6.9404 21.75 8.3625V8.3775C21.75 9.1095 21.9623 9.82875 22.362 10.4415C22.9395 11.2867 23.25 12.4193 23.25 13.401C23.2531 14.202 23.0741 14.9931 22.7265 15.7147C23.0513 16.3995 23.25 17.1728 23.25 18C23.25 20.9048 20.9048 23.25 18 23.25H6C3.09525 23.25 0.750002 20.9048 0.750002 18C0.750002 17.1728 0.948752 16.3995 1.2735 15.7147L1.27275 15.7125C0.930742 14.9898 0.752257 14.2006 0.750002 13.401C0.749121 12.3546 1.05441 11.3308 1.62825 10.4557L1.632 10.4497L1.6365 10.443C2.03706 9.8286 2.25022 9.11094 2.25 8.3775V8.3625C2.2504 6.9404 2.8155 5.57666 3.82108 4.57108C4.82666 3.5655 6.1904 3.0004 7.6125 3C7.61858 2.99959 7.62448 2.9978 7.62975 2.99475C7.63269 2.99332 7.63546 2.99156 7.638 2.9895L7.64025 2.988L7.641 2.9865ZM13.0335 8.688C12.0973 8.68937 11.1748 8.46318 10.3454 8.02889C9.51605 7.59461 8.80466 6.96524 8.2725 6.195L8.1615 6.4575C7.81356 7.31328 7.1497 8.00238 6.3075 8.382C6.29051 8.38979 6.27296 8.39631 6.255 8.4015C5.832 8.523 5.55525 8.84925 5.382 9.3765C5.2065 9.91275 5.15925 10.605 5.17725 11.3422C5.17937 11.4237 5.15489 11.5036 5.10753 11.5699C5.06017 11.6363 4.99249 11.6853 4.91475 11.7098C4.50396 11.839 4.15015 12.1057 3.91275 12.465C3.67534 12.8243 3.56881 13.2544 3.61103 13.6829C3.65326 14.1115 3.84167 14.5125 4.14463 14.8186C4.44758 15.1246 4.84663 15.3171 5.27475 15.3638C5.35104 15.3719 5.42301 15.4032 5.48095 15.4535C5.53888 15.5038 5.58 15.5706 5.59875 15.645C6.3285 18.555 8.90325 20.4375 11.991 20.4375C15.099 20.4375 17.6873 18.5303 18.3975 15.5865C18.4171 15.505 18.4634 15.4325 18.5291 15.3804C18.5948 15.3283 18.676 15.2998 18.7598 15.2992C19.2326 15.2977 19.6875 15.1175 20.0331 14.7947C20.3788 14.472 20.5897 14.0306 20.6237 13.5589C20.6576 13.0872 20.5121 12.6201 20.2162 12.2512C19.9204 11.8823 19.496 11.6388 19.0283 11.5695C18.9367 11.5559 18.8535 11.5089 18.7945 11.4376C18.7355 11.3663 18.705 11.2757 18.7088 11.1833L18.75 10.1775C18.7133 9.42 18.4305 9.072 18.183 8.90025C17.992 8.76963 17.7677 8.69626 17.5365 8.68875H13.035L13.0335 8.688Z" fill="#7E8494"/>
</g>
</g>
<defs>
<clipPath id="clip0_195_847">
<rect width="24" height="24" fill="white"/>
</clipPath>
</defs>
</svg>
