<svg width="27" height="24" viewBox="0 0 27 24" fill="none" xmlns="http://www.w3.org/2000/svg">
<g id="satellite-outlined-24px 1" clip-path="url(#clip0_220_1790)">
<path id="Vector" d="M20.7778 3H5.22222C4 3 3 3.9 3 5V19C3 20.1 4 21 5.22222 21H20.7778C22 21 23 20.1 23 19V5C23 3.9 22 3 20.7778 3ZM20.7778 19H5.22222V5H20.7778V19ZM9.18889 6H6.33333V8.58C7.91111 8.58 9.18889 7.42 9.18889 6ZM13 6H11.1C11.1 8.36 8.96667 10.29 6.33333 10.29V12C10.0222 12 13 9.31 13 6ZM15.3778 11.86L12.0444 15.73L9.66667 13.15L6.33333 17H19.6667L15.3778 11.86Z" fill="#C2C5CD"/>
</g>
<defs>
<clipPath id="clip0_220_1790">
<rect width="27" height="24" fill="white"/>
</clipPath>
</defs>
</svg>
