<svg width="24" height="24" viewBox="0 0 24 24" fill="none" xmlns="http://www.w3.org/2000/svg">
<g id="Icon">
<path id="Vector" d="M12 11.988C12.9129 11.988 13.7497 11.7639 14.5105 11.3157C15.2713 10.8675 15.8759 10.2633 16.3243 9.503C16.7728 8.7427 16.997 7.90636 16.997 6.994C16.997 6.08163 16.7728 5.2453 16.3243 4.48499C15.8759 3.72469 15.2713 3.12045 14.5105 2.67227C13.7497 2.22409 12.9129 2 12 2C11.0871 2 10.2503 2.22409 9.48949 2.67227C8.72873 3.12045 8.12412 3.72469 7.67568 4.48499C7.22723 5.2453 7.003 6.08163 7.003 6.994C7.003 7.90636 7.22723 8.7427 7.67568 9.503C8.12412 10.2633 8.72873 10.8675 9.48949 11.3157C10.2503 11.7639 11.0871 11.988 12 11.988ZM12 2.98439C12.7207 2.98439 13.3894 3.16446 14.006 3.52461C14.6226 3.88475 15.1111 4.37295 15.4715 4.98919C15.8318 5.60544 16.012 6.27371 16.012 6.994C16.012 7.71428 15.8318 8.38255 15.4715 8.9988C15.1111 9.61505 14.6226 10.1032 14.006 10.4634C13.3894 10.8235 12.7207 11.0036 12 11.0036C11.2793 11.0036 10.6106 10.8235 9.99399 10.4634C9.37738 10.1032 8.88889 9.61505 8.52853 8.9988C8.16817 8.38255 7.98799 7.71428 7.98799 6.994C7.98799 6.27371 8.16817 5.60544 8.52853 4.98919C8.88889 4.37295 9.37738 3.88475 9.99399 3.52461C10.6106 3.16446 11.2793 2.98439 12 2.98439ZM12 13.9808C10.4945 13.9808 9.13313 14.3089 7.91592 14.9652C6.6987 15.6214 5.74575 16.5098 5.05706 17.6303C4.35235 18.7987 4 20.0872 4 21.4958V22H20V21.4958C20 20.0872 19.6476 18.7987 18.9429 17.6303C18.2543 16.5098 17.3013 15.6214 16.0841 14.9652C14.8669 14.3089 13.5055 13.9808 12 13.9808ZM4.98498 20.9916C5.06507 19.8551 5.42142 18.8307 6.05405 17.9184C6.68669 17.006 7.51952 16.2897 8.55255 15.7695C9.58559 15.2493 10.7347 14.9892 12 14.9892C13.2653 14.9892 14.4144 15.2493 15.4474 15.7695C16.4805 16.2897 17.3093 17.006 17.9339 17.9184C18.5586 18.8307 18.9189 19.8551 19.015 20.9916H4.98498Z" fill="black"/>
</g>
</svg>
