<svg width="253" height="56" viewBox="0 0 253 56" fill="none" xmlns="http://www.w3.org/2000/svg">
<g id="logo">
<path id="Rectangle 330 (Traced)" fill-rule="evenodd" clip-rule="evenodd" d="M92.668 27.9999V55.7777H120.446H148.224V27.9999V0.222168H120.446H92.668V27.9999ZM134.335 27.9999V41.8888H120.446H106.557V27.9999V14.1111H120.446H134.335V27.9999Z" fill="#5A8E65"/>
<g id="BRANDNAME (Traced)">
<mask id="path-2-outside-1_252_864" maskUnits="userSpaceOnUse" x="0" y="14.8877" width="253" height="26" fill="black">
<rect fill="white" y="14.8877" width="253" height="26"/>
<path fill-rule="evenodd" clip-rule="evenodd" d="M1 28.1275V39.3525H7.91443H14.8288L15.5628 39.2445L16.2968 39.1364L17.0424 38.8897L17.7882 38.643L18.387 38.2899L18.986 37.9368L19.532 37.4189L20.0779 36.9009L20.372 36.4866L20.6661 36.0722L20.9421 35.5197L21.2182 34.9672L21.3952 34.4061L21.5722 33.8449L21.694 33.232L21.8158 32.6192L21.8151 31.3416L21.8145 30.064L21.6896 29.3734L21.5647 28.6828L21.3954 28.0958L21.226 27.5088L20.9206 26.8629L20.6152 26.2171L20.3075 25.7859L19.9998 25.3547L19.4777 24.8672L18.9555 24.3796L18.3078 24.0581L17.6601 23.7366L17.0598 23.6151L16.4596 23.4936L16.7355 23.4109L17.0114 23.3282L17.4147 23.0251L17.8181 22.7219L18.0323 22.422L18.2465 22.1221L18.3919 21.8353L18.5373 21.5485L18.5989 21.155L18.6606 20.7617L18.6053 20.2123L18.5499 19.6629L18.4379 19.3258L18.3259 18.9886L18.0595 18.5765L17.7931 18.1643L17.4219 17.884L17.0507 17.6038L16.6471 17.4253L16.2434 17.2468L15.6831 17.0976L15.1228 16.9485L8.06139 16.9255L1 16.9025V28.1275ZM25.9997 28.1282V39.3525H27.6227H29.2456V31.8244V24.2962L32.6382 24.3141L36.0309 24.332L40.3453 31.8423L44.6598 39.3525H46.5249H48.39L48.3533 39.257L48.3167 39.1616L44.0297 31.7562L39.7427 24.3508V24.3241V24.2975L41.2448 24.2971L42.7468 24.2967L43.4029 24.1972L44.0589 24.0977L44.5078 23.9584L44.9567 23.8191L45.3711 23.574L45.7854 23.329L46.0544 23.0363L46.3234 22.7436L46.5191 22.329L46.7149 21.9143L46.7854 21.5426L46.8559 21.1709L46.8547 20.7488L46.8535 20.3265L46.7564 19.8686L46.6593 19.4107L46.4883 19.0744L46.3174 18.7382L46.0991 18.4645L45.8808 18.1909L45.5224 17.919L45.1639 17.6472L44.7306 17.4489L44.2973 17.2505L43.7293 17.0987L43.1612 16.9469L34.5805 16.9255L25.9997 16.9039V28.1282ZM58.1798 27.9679L51.7937 39.0278L51.7051 39.1902L51.6166 39.3525H52.1957H52.7748L55.2829 35.0363L57.7909 30.7201H63.4691H69.1474L71.6312 35.019L74.1152 39.318L75.9956 39.3364L77.8761 39.3548L77.8527 39.2906L77.8293 39.2264L71.3722 28.0673L64.9151 16.9083L64.7405 16.9081L64.566 16.9081L58.1798 27.9679ZM81.3859 28.1303V39.3525H81.9039H82.4218V28.6137V17.8749H82.8677H83.3135L92.3369 28.6137L101.36 39.3525H102.664H103.969V28.1303V16.9081H103.451H102.933V26.4038V35.8996H102.802H102.672L94.714 26.4038L86.7562 16.9081H84.071H81.3859V28.1303ZM110.046 28.1266V39.3525H115.45H120.855L121.731 39.2501L122.607 39.1475L123.284 39.003L123.961 38.8586L124.687 38.6504L125.412 38.4423L126.152 38.1399L126.893 37.8374L127.257 37.6528L127.622 37.4683L128.14 37.1555L128.658 36.8427L129.164 36.4701L129.67 36.0974L130.226 35.5668L130.782 35.0363L131.228 34.4667L131.673 33.8971L132 33.3272L132.327 32.7573L132.577 32.1703L132.828 31.5833L132.998 30.9272L133.167 30.2712L133.252 29.592L133.338 28.9128L133.299 27.7273L133.259 26.5419L133.116 25.8721L132.972 25.2023L132.758 24.5945L132.543 23.9867L132.266 23.4342L131.989 22.8818L131.568 22.2602L131.146 21.6387L130.385 20.879L129.624 20.1194L128.968 19.6524L128.312 19.1855L127.207 18.6359L126.102 18.0862L125.377 17.8376L124.652 17.589L123.823 17.3911L122.995 17.1931L122.269 17.0721L121.544 16.951L115.795 16.9259L110.046 16.9008V28.1266ZM136.772 28.1303V39.3525H137.29H137.808V28.6106V17.8686L138.269 17.889L138.731 17.9094L147.725 28.6137L156.72 39.318L158.037 39.3368L159.355 39.3555V28.1318V16.9081H158.871H158.388V26.4038V35.8996H158.224H158.06L150.102 26.4038L142.145 16.9081H139.458H136.772V28.1303ZM175.121 16.9909L175.05 17.0807L168.684 28.1157L162.318 39.1505L162.278 39.2545L162.238 39.3584L162.809 39.3382L163.381 39.318L165.874 35.0212L168.367 30.7243L174.061 30.7395L179.755 30.7546L182.238 35.0536L184.722 39.3525H186.607H188.491L187.98 38.472L187.469 37.5915L181.496 27.2671L175.524 16.9426L175.358 16.9218L175.192 16.9011L175.121 16.9909ZM201.115 17.2605L200.948 17.6332L195.897 28.4573L190.846 39.2815V39.317V39.3525L191.416 39.3508L191.986 39.349L195.914 30.8909L199.843 22.4329L200.127 22.4339L200.411 22.4349L203.893 29.9636L207.375 37.4923L207.425 37.4383L207.476 37.3843L210.95 29.9054L214.425 22.4264L214.697 22.4469L214.969 22.4674L218.887 30.8927L222.804 39.318L224.58 39.3365L226.355 39.3549L226.332 39.2932L226.308 39.2316L221.095 28.073L215.881 16.9145L215.836 16.963L215.792 17.0117L212.39 24.332L208.987 31.6524L208.804 32.0531L208.621 32.4539L205.009 24.7328L201.398 17.0117L201.34 16.9497L201.281 16.8877L201.115 17.2605ZM230.141 28.1303V39.3525L240.31 39.3514L250.479 39.3502L250.74 38.868L251 38.3857H242.194H233.387V31.3416V24.2975H239.424H245.461L245.708 23.8547L245.956 23.4118V23.3712V23.3306H239.672H233.387V20.6028V17.8749H241.289H249.19L249.438 17.4321L249.685 16.9892V16.9487V16.9081H239.913H230.141V28.1303ZM122.166 17.9355L122.856 18.0899L123.478 18.3017L124.1 18.5134L124.651 18.7904L125.203 19.0673L125.72 19.4158L126.236 19.7643L126.851 20.3562L127.465 20.9481L127.898 21.5249L128.332 22.1018L128.677 22.768L129.023 23.4342L129.266 24.0903L129.508 24.7464L129.684 25.5406L129.861 26.3347L129.941 27.1289L130.021 27.9231L129.979 28.7196L129.938 29.5161L129.801 30.3156L129.665 31.1151L129.446 31.7982L129.227 32.4811L128.958 33.0639L128.689 33.6467L128.227 34.3415L127.764 35.0363L127.14 35.6597L126.517 36.2831L125.879 36.709L125.242 37.1348L124.67 37.4063L124.099 37.6778L123.443 37.8876L122.787 38.0973L122.267 38.2046L121.746 38.3119L121.127 38.3827L120.508 38.4537L116.9 38.4542L113.292 38.4548V28.0918V17.7288L117.383 17.7549L121.475 17.7811L122.166 17.9355ZM14.2754 18.0699L14.6712 18.2291L14.8778 18.4797L15.0844 18.7304L15.1998 19.0451L15.3151 19.3597L15.3472 20.6083L15.3792 21.8568L15.2948 22.2633L15.2104 22.6698L14.9907 22.8896L14.771 23.1092L14.498 23.1989L14.225 23.2884L9.23541 23.3133L4.24582 23.3381V20.6026V17.8672L9.06276 17.8889L13.8797 17.9107L14.2754 18.0699ZM41.6764 17.946L42.1943 18.013L42.5049 18.1723L42.8155 18.3318L43.0226 18.7368L43.2298 19.1419L43.2552 20.4248L43.2806 21.7077L43.1969 22.1767L43.1131 22.6455L42.9463 22.8438L42.7795 23.042L42.4523 23.1676L42.1253 23.2931L35.6854 23.3148L29.2456 23.3367V20.6057V17.8749L35.202 17.877L41.1584 17.8792L41.6764 17.946ZM66.169 25.5406L68.5396 29.6496L63.4877 29.6674L58.4359 29.6851L58.4078 29.6569L58.3797 29.6289L60.6015 25.7719L62.8232 21.9149L62.992 21.6523L63.1608 21.3896L63.4797 21.4106L63.7985 21.4315L66.169 25.5406ZM174.506 21.6559L174.673 21.9149L176.895 25.7712L179.117 29.6273L179.088 29.6562L179.059 29.6851L174.008 29.6674L168.958 29.6496L171.066 25.9894L173.175 22.3293L173.45 21.8631L173.725 21.397H174.032H174.339L174.506 21.6559ZM14.4667 24.3661L15.0537 24.4337L15.4681 24.5393L15.8824 24.6449L16.3757 24.8857L16.869 25.1265L17.2595 25.5169L17.6499 25.9073L17.9237 26.4729L18.1974 27.0384L18.3316 27.6534L18.4658 28.2684L18.538 29.159L18.6103 30.0495L18.6102 31.2998L18.61 32.5501L18.5394 33.4758L18.4687 34.4014L18.3321 35.0297L18.1955 35.6578L17.927 36.2186L17.6585 36.7793L17.2865 37.1509L16.9145 37.5225L16.5021 37.7406L16.0896 37.9588L15.6062 38.1025L15.1228 38.2462L14.5012 38.3154L13.8797 38.3846L9.06276 38.3852L4.24582 38.3857V31.3416V24.2975L9.06276 24.298L13.8797 24.2986L14.4667 24.3661Z"/>
</mask>
<path fill-rule="evenodd" clip-rule="evenodd" d="M1 28.1275V39.3525H7.91443H14.8288L15.5628 39.2445L16.2968 39.1364L17.0424 38.8897L17.7882 38.643L18.387 38.2899L18.986 37.9368L19.532 37.4189L20.0779 36.9009L20.372 36.4866L20.6661 36.0722L20.9421 35.5197L21.2182 34.9672L21.3952 34.4061L21.5722 33.8449L21.694 33.232L21.8158 32.6192L21.8151 31.3416L21.8145 30.064L21.6896 29.3734L21.5647 28.6828L21.3954 28.0958L21.226 27.5088L20.9206 26.8629L20.6152 26.2171L20.3075 25.7859L19.9998 25.3547L19.4777 24.8672L18.9555 24.3796L18.3078 24.0581L17.6601 23.7366L17.0598 23.6151L16.4596 23.4936L16.7355 23.4109L17.0114 23.3282L17.4147 23.0251L17.8181 22.7219L18.0323 22.422L18.2465 22.1221L18.3919 21.8353L18.5373 21.5485L18.5989 21.155L18.6606 20.7617L18.6053 20.2123L18.5499 19.6629L18.4379 19.3258L18.3259 18.9886L18.0595 18.5765L17.7931 18.1643L17.4219 17.884L17.0507 17.6038L16.6471 17.4253L16.2434 17.2468L15.6831 17.0976L15.1228 16.9485L8.06139 16.9255L1 16.9025V28.1275ZM25.9997 28.1282V39.3525H27.6227H29.2456V31.8244V24.2962L32.6382 24.3141L36.0309 24.332L40.3453 31.8423L44.6598 39.3525H46.5249H48.39L48.3533 39.257L48.3167 39.1616L44.0297 31.7562L39.7427 24.3508V24.3241V24.2975L41.2448 24.2971L42.7468 24.2967L43.4029 24.1972L44.0589 24.0977L44.5078 23.9584L44.9567 23.8191L45.3711 23.574L45.7854 23.329L46.0544 23.0363L46.3234 22.7436L46.5191 22.329L46.7149 21.9143L46.7854 21.5426L46.8559 21.1709L46.8547 20.7488L46.8535 20.3265L46.7564 19.8686L46.6593 19.4107L46.4883 19.0744L46.3174 18.7382L46.0991 18.4645L45.8808 18.1909L45.5224 17.919L45.1639 17.6472L44.7306 17.4489L44.2973 17.2505L43.7293 17.0987L43.1612 16.9469L34.5805 16.9255L25.9997 16.9039V28.1282ZM58.1798 27.9679L51.7937 39.0278L51.7051 39.1902L51.6166 39.3525H52.1957H52.7748L55.2829 35.0363L57.7909 30.7201H63.4691H69.1474L71.6312 35.019L74.1152 39.318L75.9956 39.3364L77.8761 39.3548L77.8527 39.2906L77.8293 39.2264L71.3722 28.0673L64.9151 16.9083L64.7405 16.9081L64.566 16.9081L58.1798 27.9679ZM81.3859 28.1303V39.3525H81.9039H82.4218V28.6137V17.8749H82.8677H83.3135L92.3369 28.6137L101.36 39.3525H102.664H103.969V28.1303V16.9081H103.451H102.933V26.4038V35.8996H102.802H102.672L94.714 26.4038L86.7562 16.9081H84.071H81.3859V28.1303ZM110.046 28.1266V39.3525H115.45H120.855L121.731 39.2501L122.607 39.1475L123.284 39.003L123.961 38.8586L124.687 38.6504L125.412 38.4423L126.152 38.1399L126.893 37.8374L127.257 37.6528L127.622 37.4683L128.14 37.1555L128.658 36.8427L129.164 36.4701L129.67 36.0974L130.226 35.5668L130.782 35.0363L131.228 34.4667L131.673 33.8971L132 33.3272L132.327 32.7573L132.577 32.1703L132.828 31.5833L132.998 30.9272L133.167 30.2712L133.252 29.592L133.338 28.9128L133.299 27.7273L133.259 26.5419L133.116 25.8721L132.972 25.2023L132.758 24.5945L132.543 23.9867L132.266 23.4342L131.989 22.8818L131.568 22.2602L131.146 21.6387L130.385 20.879L129.624 20.1194L128.968 19.6524L128.312 19.1855L127.207 18.6359L126.102 18.0862L125.377 17.8376L124.652 17.589L123.823 17.3911L122.995 17.1931L122.269 17.0721L121.544 16.951L115.795 16.9259L110.046 16.9008V28.1266ZM136.772 28.1303V39.3525H137.29H137.808V28.6106V17.8686L138.269 17.889L138.731 17.9094L147.725 28.6137L156.72 39.318L158.037 39.3368L159.355 39.3555V28.1318V16.9081H158.871H158.388V26.4038V35.8996H158.224H158.06L150.102 26.4038L142.145 16.9081H139.458H136.772V28.1303ZM175.121 16.9909L175.05 17.0807L168.684 28.1157L162.318 39.1505L162.278 39.2545L162.238 39.3584L162.809 39.3382L163.381 39.318L165.874 35.0212L168.367 30.7243L174.061 30.7395L179.755 30.7546L182.238 35.0536L184.722 39.3525H186.607H188.491L187.98 38.472L187.469 37.5915L181.496 27.2671L175.524 16.9426L175.358 16.9218L175.192 16.9011L175.121 16.9909ZM201.115 17.2605L200.948 17.6332L195.897 28.4573L190.846 39.2815V39.317V39.3525L191.416 39.3508L191.986 39.349L195.914 30.8909L199.843 22.4329L200.127 22.4339L200.411 22.4349L203.893 29.9636L207.375 37.4923L207.425 37.4383L207.476 37.3843L210.95 29.9054L214.425 22.4264L214.697 22.4469L214.969 22.4674L218.887 30.8927L222.804 39.318L224.58 39.3365L226.355 39.3549L226.332 39.2932L226.308 39.2316L221.095 28.073L215.881 16.9145L215.836 16.963L215.792 17.0117L212.39 24.332L208.987 31.6524L208.804 32.0531L208.621 32.4539L205.009 24.7328L201.398 17.0117L201.34 16.9497L201.281 16.8877L201.115 17.2605ZM230.141 28.1303V39.3525L240.31 39.3514L250.479 39.3502L250.74 38.868L251 38.3857H242.194H233.387V31.3416V24.2975H239.424H245.461L245.708 23.8547L245.956 23.4118V23.3712V23.3306H239.672H233.387V20.6028V17.8749H241.289H249.19L249.438 17.4321L249.685 16.9892V16.9487V16.9081H239.913H230.141V28.1303ZM122.166 17.9355L122.856 18.0899L123.478 18.3017L124.1 18.5134L124.651 18.7904L125.203 19.0673L125.72 19.4158L126.236 19.7643L126.851 20.3562L127.465 20.9481L127.898 21.5249L128.332 22.1018L128.677 22.768L129.023 23.4342L129.266 24.0903L129.508 24.7464L129.684 25.5406L129.861 26.3347L129.941 27.1289L130.021 27.9231L129.979 28.7196L129.938 29.5161L129.801 30.3156L129.665 31.1151L129.446 31.7982L129.227 32.4811L128.958 33.0639L128.689 33.6467L128.227 34.3415L127.764 35.0363L127.14 35.6597L126.517 36.2831L125.879 36.709L125.242 37.1348L124.67 37.4063L124.099 37.6778L123.443 37.8876L122.787 38.0973L122.267 38.2046L121.746 38.3119L121.127 38.3827L120.508 38.4537L116.9 38.4542L113.292 38.4548V28.0918V17.7288L117.383 17.7549L121.475 17.7811L122.166 17.9355ZM14.2754 18.0699L14.6712 18.2291L14.8778 18.4797L15.0844 18.7304L15.1998 19.0451L15.3151 19.3597L15.3472 20.6083L15.3792 21.8568L15.2948 22.2633L15.2104 22.6698L14.9907 22.8896L14.771 23.1092L14.498 23.1989L14.225 23.2884L9.23541 23.3133L4.24582 23.3381V20.6026V17.8672L9.06276 17.8889L13.8797 17.9107L14.2754 18.0699ZM41.6764 17.946L42.1943 18.013L42.5049 18.1723L42.8155 18.3318L43.0226 18.7368L43.2298 19.1419L43.2552 20.4248L43.2806 21.7077L43.1969 22.1767L43.1131 22.6455L42.9463 22.8438L42.7795 23.042L42.4523 23.1676L42.1253 23.2931L35.6854 23.3148L29.2456 23.3367V20.6057V17.8749L35.202 17.877L41.1584 17.8792L41.6764 17.946ZM66.169 25.5406L68.5396 29.6496L63.4877 29.6674L58.4359 29.6851L58.4078 29.6569L58.3797 29.6289L60.6015 25.7719L62.8232 21.9149L62.992 21.6523L63.1608 21.3896L63.4797 21.4106L63.7985 21.4315L66.169 25.5406ZM174.506 21.6559L174.673 21.9149L176.895 25.7712L179.117 29.6273L179.088 29.6562L179.059 29.6851L174.008 29.6674L168.958 29.6496L171.066 25.9894L173.175 22.3293L173.45 21.8631L173.725 21.397H174.032H174.339L174.506 21.6559ZM14.4667 24.3661L15.0537 24.4337L15.4681 24.5393L15.8824 24.6449L16.3757 24.8857L16.869 25.1265L17.2595 25.5169L17.6499 25.9073L17.9237 26.4729L18.1974 27.0384L18.3316 27.6534L18.4658 28.2684L18.538 29.159L18.6103 30.0495L18.6102 31.2998L18.61 32.5501L18.5394 33.4758L18.4687 34.4014L18.3321 35.0297L18.1955 35.6578L17.927 36.2186L17.6585 36.7793L17.2865 37.1509L16.9145 37.5225L16.5021 37.7406L16.0896 37.9588L15.6062 38.1025L15.1228 38.2462L14.5012 38.3154L13.8797 38.3846L9.06276 38.3852L4.24582 38.3857V31.3416V24.2975L9.06276 24.298L13.8797 24.2986L14.4667 24.3661Z" fill="black"/>
<path fill-rule="evenodd" clip-rule="evenodd" d="M1 28.1275V39.3525H7.91443H14.8288L15.5628 39.2445L16.2968 39.1364L17.0424 38.8897L17.7882 38.643L18.387 38.2899L18.986 37.9368L19.532 37.4189L20.0779 36.9009L20.372 36.4866L20.6661 36.0722L20.9421 35.5197L21.2182 34.9672L21.3952 34.4061L21.5722 33.8449L21.694 33.232L21.8158 32.6192L21.8151 31.3416L21.8145 30.064L21.6896 29.3734L21.5647 28.6828L21.3954 28.0958L21.226 27.5088L20.9206 26.8629L20.6152 26.2171L20.3075 25.7859L19.9998 25.3547L19.4777 24.8672L18.9555 24.3796L18.3078 24.0581L17.6601 23.7366L17.0598 23.6151L16.4596 23.4936L16.7355 23.4109L17.0114 23.3282L17.4147 23.0251L17.8181 22.7219L18.0323 22.422L18.2465 22.1221L18.3919 21.8353L18.5373 21.5485L18.5989 21.155L18.6606 20.7617L18.6053 20.2123L18.5499 19.6629L18.4379 19.3258L18.3259 18.9886L18.0595 18.5765L17.7931 18.1643L17.4219 17.884L17.0507 17.6038L16.6471 17.4253L16.2434 17.2468L15.6831 17.0976L15.1228 16.9485L8.06139 16.9255L1 16.9025V28.1275ZM25.9997 28.1282V39.3525H27.6227H29.2456V31.8244V24.2962L32.6382 24.3141L36.0309 24.332L40.3453 31.8423L44.6598 39.3525H46.5249H48.39L48.3533 39.257L48.3167 39.1616L44.0297 31.7562L39.7427 24.3508V24.3241V24.2975L41.2448 24.2971L42.7468 24.2967L43.4029 24.1972L44.0589 24.0977L44.5078 23.9584L44.9567 23.8191L45.3711 23.574L45.7854 23.329L46.0544 23.0363L46.3234 22.7436L46.5191 22.329L46.7149 21.9143L46.7854 21.5426L46.8559 21.1709L46.8547 20.7488L46.8535 20.3265L46.7564 19.8686L46.6593 19.4107L46.4883 19.0744L46.3174 18.7382L46.0991 18.4645L45.8808 18.1909L45.5224 17.919L45.1639 17.6472L44.7306 17.4489L44.2973 17.2505L43.7293 17.0987L43.1612 16.9469L34.5805 16.9255L25.9997 16.9039V28.1282ZM58.1798 27.9679L51.7937 39.0278L51.7051 39.1902L51.6166 39.3525H52.1957H52.7748L55.2829 35.0363L57.7909 30.7201H63.4691H69.1474L71.6312 35.019L74.1152 39.318L75.9956 39.3364L77.8761 39.3548L77.8527 39.2906L77.8293 39.2264L71.3722 28.0673L64.9151 16.9083L64.7405 16.9081L64.566 16.9081L58.1798 27.9679ZM81.3859 28.1303V39.3525H81.9039H82.4218V28.6137V17.8749H82.8677H83.3135L92.3369 28.6137L101.36 39.3525H102.664H103.969V28.1303V16.9081H103.451H102.933V26.4038V35.8996H102.802H102.672L94.714 26.4038L86.7562 16.9081H84.071H81.3859V28.1303ZM110.046 28.1266V39.3525H115.45H120.855L121.731 39.2501L122.607 39.1475L123.284 39.003L123.961 38.8586L124.687 38.6504L125.412 38.4423L126.152 38.1399L126.893 37.8374L127.257 37.6528L127.622 37.4683L128.14 37.1555L128.658 36.8427L129.164 36.4701L129.67 36.0974L130.226 35.5668L130.782 35.0363L131.228 34.4667L131.673 33.8971L132 33.3272L132.327 32.7573L132.577 32.1703L132.828 31.5833L132.998 30.9272L133.167 30.2712L133.252 29.592L133.338 28.9128L133.299 27.7273L133.259 26.5419L133.116 25.8721L132.972 25.2023L132.758 24.5945L132.543 23.9867L132.266 23.4342L131.989 22.8818L131.568 22.2602L131.146 21.6387L130.385 20.879L129.624 20.1194L128.968 19.6524L128.312 19.1855L127.207 18.6359L126.102 18.0862L125.377 17.8376L124.652 17.589L123.823 17.3911L122.995 17.1931L122.269 17.0721L121.544 16.951L115.795 16.9259L110.046 16.9008V28.1266ZM136.772 28.1303V39.3525H137.29H137.808V28.6106V17.8686L138.269 17.889L138.731 17.9094L147.725 28.6137L156.72 39.318L158.037 39.3368L159.355 39.3555V28.1318V16.9081H158.871H158.388V26.4038V35.8996H158.224H158.06L150.102 26.4038L142.145 16.9081H139.458H136.772V28.1303ZM175.121 16.9909L175.05 17.0807L168.684 28.1157L162.318 39.1505L162.278 39.2545L162.238 39.3584L162.809 39.3382L163.381 39.318L165.874 35.0212L168.367 30.7243L174.061 30.7395L179.755 30.7546L182.238 35.0536L184.722 39.3525H186.607H188.491L187.98 38.472L187.469 37.5915L181.496 27.2671L175.524 16.9426L175.358 16.9218L175.192 16.9011L175.121 16.9909ZM201.115 17.2605L200.948 17.6332L195.897 28.4573L190.846 39.2815V39.317V39.3525L191.416 39.3508L191.986 39.349L195.914 30.8909L199.843 22.4329L200.127 22.4339L200.411 22.4349L203.893 29.9636L207.375 37.4923L207.425 37.4383L207.476 37.3843L210.95 29.9054L214.425 22.4264L214.697 22.4469L214.969 22.4674L218.887 30.8927L222.804 39.318L224.58 39.3365L226.355 39.3549L226.332 39.2932L226.308 39.2316L221.095 28.073L215.881 16.9145L215.836 16.963L215.792 17.0117L212.39 24.332L208.987 31.6524L208.804 32.0531L208.621 32.4539L205.009 24.7328L201.398 17.0117L201.34 16.9497L201.281 16.8877L201.115 17.2605ZM230.141 28.1303V39.3525L240.31 39.3514L250.479 39.3502L250.74 38.868L251 38.3857H242.194H233.387V31.3416V24.2975H239.424H245.461L245.708 23.8547L245.956 23.4118V23.3712V23.3306H239.672H233.387V20.6028V17.8749H241.289H249.19L249.438 17.4321L249.685 16.9892V16.9487V16.9081H239.913H230.141V28.1303ZM122.166 17.9355L122.856 18.0899L123.478 18.3017L124.1 18.5134L124.651 18.7904L125.203 19.0673L125.72 19.4158L126.236 19.7643L126.851 20.3562L127.465 20.9481L127.898 21.5249L128.332 22.1018L128.677 22.768L129.023 23.4342L129.266 24.0903L129.508 24.7464L129.684 25.5406L129.861 26.3347L129.941 27.1289L130.021 27.9231L129.979 28.7196L129.938 29.5161L129.801 30.3156L129.665 31.1151L129.446 31.7982L129.227 32.4811L128.958 33.0639L128.689 33.6467L128.227 34.3415L127.764 35.0363L127.14 35.6597L126.517 36.2831L125.879 36.709L125.242 37.1348L124.67 37.4063L124.099 37.6778L123.443 37.8876L122.787 38.0973L122.267 38.2046L121.746 38.3119L121.127 38.3827L120.508 38.4537L116.9 38.4542L113.292 38.4548V28.0918V17.7288L117.383 17.7549L121.475 17.7811L122.166 17.9355ZM14.2754 18.0699L14.6712 18.2291L14.8778 18.4797L15.0844 18.7304L15.1998 19.0451L15.3151 19.3597L15.3472 20.6083L15.3792 21.8568L15.2948 22.2633L15.2104 22.6698L14.9907 22.8896L14.771 23.1092L14.498 23.1989L14.225 23.2884L9.23541 23.3133L4.24582 23.3381V20.6026V17.8672L9.06276 17.8889L13.8797 17.9107L14.2754 18.0699ZM41.6764 17.946L42.1943 18.013L42.5049 18.1723L42.8155 18.3318L43.0226 18.7368L43.2298 19.1419L43.2552 20.4248L43.2806 21.7077L43.1969 22.1767L43.1131 22.6455L42.9463 22.8438L42.7795 23.042L42.4523 23.1676L42.1253 23.2931L35.6854 23.3148L29.2456 23.3367V20.6057V17.8749L35.202 17.877L41.1584 17.8792L41.6764 17.946ZM66.169 25.5406L68.5396 29.6496L63.4877 29.6674L58.4359 29.6851L58.4078 29.6569L58.3797 29.6289L60.6015 25.7719L62.8232 21.9149L62.992 21.6523L63.1608 21.3896L63.4797 21.4106L63.7985 21.4315L66.169 25.5406ZM174.506 21.6559L174.673 21.9149L176.895 25.7712L179.117 29.6273L179.088 29.6562L179.059 29.6851L174.008 29.6674L168.958 29.6496L171.066 25.9894L173.175 22.3293L173.45 21.8631L173.725 21.397H174.032H174.339L174.506 21.6559ZM14.4667 24.3661L15.0537 24.4337L15.4681 24.5393L15.8824 24.6449L16.3757 24.8857L16.869 25.1265L17.2595 25.5169L17.6499 25.9073L17.9237 26.4729L18.1974 27.0384L18.3316 27.6534L18.4658 28.2684L18.538 29.159L18.6103 30.0495L18.6102 31.2998L18.61 32.5501L18.5394 33.4758L18.4687 34.4014L18.3321 35.0297L18.1955 35.6578L17.927 36.2186L17.6585 36.7793L17.2865 37.1509L16.9145 37.5225L16.5021 37.7406L16.0896 37.9588L15.6062 38.1025L15.1228 38.2462L14.5012 38.3154L13.8797 38.3846L9.06276 38.3852L4.24582 38.3857V31.3416V24.2975L9.06276 24.298L13.8797 24.2986L14.4667 24.3661Z" stroke="white" stroke-width="2" mask="url(#path-2-outside-1_252_864)"/>
</g>
</g>
</svg>
