<svg width="24" height="24" viewBox="0 0 24 24" fill="none" xmlns="http://www.w3.org/2000/svg">
<g id="fluent-emoji-high-contrast:man-beard">
<g id="Group">
<path id="Vector" d="M15.3431 11.5494C16.2536 11.5494 17.0231 12.1794 17.2384 13.0247C17.2522 13.0815 17.2529 13.1408 17.2403 13.1979C17.2277 13.2551 17.2023 13.3086 17.1659 13.3544C17.1295 13.4002 17.0831 13.437 17.0303 13.4622C16.9775 13.4873 16.9196 13.5001 16.8611 13.4994H16.2611C16.3126 13.3137 16.3203 13.1186 16.2837 12.9294C16.2471 12.7402 16.1672 12.5621 16.0502 12.4089C15.9332 12.2558 15.7824 12.1318 15.6095 12.0467C15.4366 11.9616 15.2463 11.9177 15.0536 11.9184C14.8897 11.9176 14.7272 11.9494 14.5756 12.012C14.424 12.0745 14.2864 12.1665 14.1707 12.2827C14.055 12.3989 13.9635 12.5369 13.9016 12.6888C13.8397 12.8406 13.8086 13.0032 13.8101 13.1672C13.8101 13.2849 13.8251 13.3959 13.8551 13.4994H13.7434C13.6962 13.4998 13.6496 13.4897 13.6068 13.4699C13.5639 13.4501 13.526 13.4212 13.4956 13.3851C13.4653 13.349 13.4432 13.3067 13.4311 13.2611C13.419 13.2155 13.417 13.1679 13.4254 13.1214C13.5131 12.6776 13.7523 12.2781 14.1022 11.9914C14.4521 11.7046 14.8908 11.5483 15.3431 11.5494ZM6.76088 13.0247C6.86928 12.5942 7.12093 12.2134 7.47447 11.945C7.828 11.6765 8.26237 11.5363 8.70615 11.5475C9.14993 11.5587 9.57669 11.7205 9.91627 12.0064C10.2559 12.2923 10.488 12.6853 10.5746 13.1207C10.5831 13.1672 10.5813 13.2151 10.5691 13.2608C10.557 13.3065 10.5349 13.349 10.5045 13.3852C10.474 13.4213 10.4359 13.4504 10.393 13.4701C10.35 13.4899 10.3032 13.4999 10.2559 13.4994H10.1449C10.1749 13.3959 10.1891 13.2849 10.1891 13.1672C10.1891 12.4727 9.63413 11.9184 8.94488 11.9184C8.75224 11.9178 8.56208 11.9618 8.38927 12.047C8.21647 12.1321 8.06573 12.2561 7.94884 12.4092C7.83196 12.5624 7.75212 12.7405 7.71556 12.9296C7.679 13.1188 7.68673 13.3138 7.73813 13.4994H7.13813C7.07964 13.5001 7.02177 13.4873 6.96895 13.4622C6.91613 13.437 6.86975 13.4002 6.83336 13.3544C6.79697 13.3086 6.77152 13.2551 6.75896 13.1979C6.7464 13.1408 6.74705 13.0815 6.76088 13.0247Z" fill="#7E8494"/>
<path id="Vector_2" d="M14.3362 13.1676C14.3361 13.0273 14.3779 12.8902 14.4562 12.7738C14.4884 12.8563 14.5687 12.9148 14.6617 12.9148C14.7092 12.9143 14.7554 12.8988 14.7936 12.8704C14.8318 12.842 14.86 12.8023 14.8741 12.7569C14.8883 12.7114 14.8877 12.6627 14.8724 12.6176C14.8572 12.5726 14.828 12.5335 14.7892 12.5061C14.9242 12.453 15.0723 12.4426 15.2134 12.4762C15.3546 12.5098 15.4821 12.5859 15.5787 12.6941C15.6754 12.8024 15.7365 12.9376 15.754 13.0816C15.7715 13.2257 15.7444 13.3716 15.6764 13.4998H14.4187C14.3654 13.3971 14.3371 13.2833 14.3362 13.1676ZM8.94517 12.4581C9.06771 12.4578 9.18826 12.4892 9.29508 12.5492C9.4019 12.6093 9.49137 12.6959 9.55478 12.8008C9.6182 12.9057 9.6534 13.0251 9.65697 13.1476C9.66055 13.2701 9.63236 13.3915 9.57517 13.4998H8.31592C8.26314 13.397 8.23539 13.2832 8.23492 13.1676C8.23492 13.0386 8.26942 12.9171 8.33017 12.8128C8.35605 12.8536 8.39455 12.8848 8.43981 12.9016C8.48507 12.9185 8.53459 12.92 8.58082 12.9061C8.62706 12.8922 8.66746 12.8635 8.69587 12.8244C8.72428 12.7854 8.73913 12.7381 8.73817 12.6898C8.73823 12.6572 8.73122 12.625 8.71763 12.5953C8.70403 12.5657 8.68417 12.5393 8.65942 12.5181C8.74948 12.4785 8.84679 12.4581 8.94517 12.4581ZM7.19992 10.4248L6.72217 9.85109C6.5693 9.977 6.47272 10.1585 6.45366 10.3556C6.44422 10.4532 6.4541 10.5517 6.48274 10.6455C6.51137 10.7393 6.5582 10.8265 6.62054 10.9022C6.68289 10.9779 6.75953 11.0406 6.8461 11.0866C6.93266 11.1327 7.02745 11.1613 7.12506 11.1707C7.32218 11.1898 7.5188 11.1298 7.67167 11.0038L7.67392 11.0016L7.68217 10.9956C7.69642 10.9851 7.72192 10.9671 7.75867 10.9431C7.83367 10.8981 7.94917 10.8328 8.10217 10.7721C8.51756 10.6102 8.96896 10.5636 9.40867 10.6371C9.6042 10.6679 9.80397 10.6198 9.96403 10.5034C10.1241 10.3869 10.2313 10.2116 10.2622 10.0161C10.293 9.82056 10.2449 9.62079 10.1284 9.46073C10.012 9.30066 9.8367 9.19342 9.64117 9.16259C8.93793 9.04727 8.21662 9.1237 7.55317 9.38384C7.34913 9.46409 7.15282 9.56275 6.96667 9.67859C6.89209 9.72513 6.81976 9.77519 6.74992 9.82859L6.73342 9.84209L6.72667 9.84734L6.72442 9.84959L6.72292 9.85034C6.72292 9.85034 6.72217 9.85109 7.19992 10.4248ZM17.2019 9.85109C17.3465 9.97939 17.4357 10.1588 17.4508 10.3515C17.4659 10.5442 17.4057 10.7353 17.2829 10.8845C17.1601 11.0338 16.9841 11.1296 16.7921 11.1519C16.6001 11.1741 16.4069 11.1211 16.2532 11.0038L16.2427 10.9956C16.1115 10.9056 15.9706 10.8306 15.8227 10.7721C15.4073 10.6102 14.9559 10.5636 14.5162 10.6371C14.4194 10.6524 14.3205 10.6484 14.2252 10.6255C14.1299 10.6025 14.0401 10.561 13.9608 10.5034C13.8815 10.4457 13.8144 10.373 13.7633 10.2894C13.7121 10.2058 13.6779 10.1129 13.6627 10.0161C13.6474 9.91927 13.6514 9.8204 13.6743 9.72511C13.6972 9.62982 13.7387 9.53998 13.7964 9.46073C13.8541 9.38147 13.9268 9.31435 14.0104 9.2632C14.094 9.21204 14.1869 9.17786 14.2837 9.16259C14.9867 9.04737 15.7077 9.1238 16.3709 9.38384C16.6214 9.48284 16.8187 9.59159 16.9582 9.67859C17.0327 9.72513 17.1051 9.77519 17.1749 9.82859L17.1914 9.84209L17.1982 9.84734L17.2004 9.84959L17.2019 9.85109ZM11.9999 18.1753C11.4082 18.1753 10.8524 18.0501 10.3859 17.8303C10.2262 17.7576 10.0544 17.9203 10.1549 18.0501C10.5449 18.5826 11.2252 18.9373 11.9999 18.9373C12.7747 18.9373 13.4549 18.5826 13.8449 18.0501C13.9454 17.9151 13.7737 17.7576 13.6139 17.8311C13.1077 18.0629 12.5567 18.1807 11.9999 18.1761V18.1753Z" fill="#7E8494"/>
<path id="Vector_3" d="M18.7392 4.48324L19.3391 4.78174C20.3899 5.30449 20.9899 6.49774 20.7649 7.76599L20.1657 10.8545C20.6864 11.1333 21.1133 11.5596 21.3929 12.08C21.6724 12.6004 21.7921 13.1917 21.737 13.7799C21.6819 14.368 21.4545 14.9268 21.0831 15.3862C20.7118 15.8456 20.2132 16.1853 19.6497 16.3625L19.5161 18.35L19.5147 18.3672C19.2559 21.2232 16.9909 23.2497 14.2782 23.2497H9.78715C6.99115 23.2497 4.80865 21.2157 4.5499 18.3672L4.5484 18.3492L4.41865 16.3835C3.84579 16.2186 3.33503 15.8868 2.95151 15.4304C2.56799 14.974 2.3291 14.4137 2.26529 13.821C2.20148 13.2283 2.31565 12.6301 2.59325 12.1025C2.87084 11.575 3.29927 11.1421 3.8239 10.859L3.2089 7.69099C3.0589 6.49774 3.6589 5.30449 4.70965 4.78174L5.30965 4.48324C5.68465 4.25974 6.05965 3.96124 6.43465 3.66274L7.7854 2.24524C8.6104 1.49974 9.81115 1.27624 10.8612 1.79824C11.6203 2.02173 12.4278 2.02173 13.1869 1.79824C14.3119 1.42549 15.5877 1.72324 16.4884 2.54449L17.6134 3.66274C17.9134 4.03624 18.2892 4.25974 18.7392 4.48324ZM18.5442 10.4427C18.5755 10.0416 18.5662 9.63828 18.5164 9.23899C18.2936 8.95399 18.1392 8.58349 18.1392 8.21299V7.78849C17.9033 7.20488 17.574 6.66355 17.1642 6.18574C16.1666 5.96449 14.4319 5.67724 12.0627 5.67724C9.65515 5.67724 7.90315 5.97349 6.91315 6.19624C6.52883 6.65662 6.2163 7.17244 5.98615 7.72624V8.21374C5.98615 8.61649 5.8639 9.01924 5.56615 9.31324C5.51995 9.68887 5.50765 10.0679 5.5294 10.4457L5.5819 11.2385C5.59127 11.3784 5.56124 11.5181 5.49522 11.6418C5.42921 11.7655 5.32984 11.8682 5.2084 11.9382L7.04965 17.3997C7.12465 17.7747 7.57465 17.8497 7.79965 17.6247L8.39965 17.0997C8.92465 16.6497 9.52465 16.4997 10.1247 16.4997H11.4499C11.3311 16.501 11.2136 16.4741 11.1071 16.4213C11.0006 16.3685 10.9082 16.2913 10.8372 16.1959C10.7663 16.1005 10.7189 15.9898 10.699 15.8726C10.679 15.7554 10.687 15.6352 10.7224 15.5217L11.4649 13.1442C11.6322 12.6185 12.3747 12.6185 12.5344 13.1442L13.2769 15.5217C13.3116 15.6352 13.3191 15.7552 13.2989 15.8721C13.2786 15.989 13.2312 16.0995 13.1604 16.1947C13.0896 16.2898 12.9974 16.367 12.8913 16.42C12.7851 16.473 12.668 16.5003 12.5494 16.4997H13.8747C14.5497 16.4997 15.1496 16.6497 15.5996 17.0997L16.1997 17.6247C16.4247 17.8497 16.8747 17.6997 16.9497 17.3997L18.8494 11.945C18.7317 11.8737 18.6358 11.7715 18.5723 11.6494C18.5088 11.5273 18.4801 11.39 18.4894 11.2527L18.5434 10.4495L18.5442 10.4427ZM3.74965 13.4997C3.74951 13.8631 3.88128 14.2142 4.12047 14.4877C4.35966 14.7612 4.69001 14.9387 5.05015 14.987L4.9129 12.6507L4.9159 12.752C4.63615 12.752 4.3924 12.6125 4.2304 12.3995C4.07867 12.5398 3.95762 12.7099 3.87488 12.8993C3.79215 13.0887 3.74951 13.2931 3.74965 13.4997ZM19.1359 12.7497L18.9829 14.9817C19.259 14.9383 19.5175 14.8186 19.7293 14.6362C19.941 14.4537 20.0975 14.2157 20.1812 13.949C20.2649 13.6823 20.2724 13.3975 20.2028 13.1267C20.1333 12.856 19.9895 12.6101 19.7877 12.4167C19.6482 12.6245 19.4261 12.7467 19.1359 12.7497ZM9.74965 18.3747V19.4997C9.74965 20.1747 10.3497 20.7747 11.0997 20.7747C11.2497 20.7747 11.3247 20.6247 11.3247 20.5497V20.4747C11.3247 20.0997 11.6247 19.7997 11.9997 19.7997C12.3747 19.7997 12.6747 20.0997 12.6747 20.4747V20.5497C12.6747 20.6997 12.8247 20.7747 12.8997 20.7747C13.5747 20.7747 14.2497 20.2497 14.2497 19.4997V18.3747C14.2497 17.9997 13.9902 17.6997 13.4997 17.6997H10.4997C10.0242 17.6997 9.74965 17.9997 9.74965 18.3747Z" fill="#7E8494"/>
</g>
</g>
</svg>
