<svg width="24" height="25" viewBox="0 0 24 25" fill="none" xmlns="http://www.w3.org/2000/svg">
<path d="M10.8062 2.49707C10.2892 2.49707 9.79528 2.70138 9.42928 3.06738L8.99959 3.49707H3.99959C3.86708 3.4952 3.73552 3.51968 3.61255 3.56909C3.48958 3.6185 3.37766 3.69187 3.28329 3.78491C3.18892 3.87795 3.11399 3.98883 3.06284 4.11108C3.01169 4.23334 2.98535 4.36454 2.98535 4.49707C2.98535 4.6296 3.01169 4.7608 3.06284 4.88306C3.11399 5.00531 3.18892 5.11619 3.28329 5.20923C3.37766 5.30227 3.48958 5.37564 3.61255 5.42505C3.73552 5.47446 3.86708 5.49894 3.99959 5.49707H19.9996C20.1321 5.49894 20.2637 5.47446 20.3866 5.42505C20.5096 5.37564 20.6215 5.30227 20.7159 5.20923C20.8103 5.11619 20.8852 5.00531 20.9363 4.88306C20.9875 4.7608 21.0138 4.6296 21.0138 4.49707C21.0138 4.36454 20.9875 4.23334 20.9363 4.11108C20.8852 3.98883 20.8103 3.87795 20.7159 3.78491C20.6215 3.69187 20.5096 3.6185 20.3866 3.56909C20.2637 3.51968 20.1321 3.4952 19.9996 3.49707H14.9996L14.5699 3.06738C14.2049 2.70138 13.71 2.49707 13.193 2.49707H10.8062ZM4.36483 7.49707L5.89217 20.7607C6.02417 21.7507 6.87659 22.4971 7.87459 22.4971H16.1226C17.1206 22.4971 17.974 21.7519 18.107 20.7529L19.6344 7.49707H4.36483Z" fill="#7E8494"/>
</svg>
